<mxfile host="app.diagrams.net" modified="2023-06-25T11:26:55.350Z" agent="Mozilla/5.0 (Macintosh; Intel Mac OS X 10_15_7) AppleWebKit/537.36 (KHTML, like Gecko) Chrome/114.0.0.0 Safari/537.36" etag="x81wLMjfd3Oh0AtYSYrm" version="21.4.0" type="github" pages="4">
  <diagram id="TaE2ys9rEfVsJn4JcLC4" name="[0] topo">
    <mxGraphModel dx="553" dy="299" grid="0" gridSize="2" guides="1" tooltips="1" connect="1" arrows="1" fold="1" page="1" pageScale="1" pageWidth="827" pageHeight="1169" background="#4D5766" math="0" shadow="0">
      <root>
        <mxCell id="0" />
        <mxCell id="1" parent="0" />
        <mxCell id="j4m8A4aLkTxaPG4QSd9O-2" style="rounded=0;orthogonalLoop=1;jettySize=auto;html=1;exitX=0.5;exitY=1;exitDx=0;exitDy=0;startSize=6;endArrow=none;endFill=0;endSize=2;fontFamily=Manrope;fontSize=8;strokeColor=#98A2AE;fontSource=https%3A%2F%2Ffonts.googleapis.com%2Fcss%3Ffamily%3DManrope;entryX=0.25;entryY=0;entryDx=0;entryDy=0;" edge="1" parent="1" source="Q95-SlDKpTRxNVJRLP6k-14" target="j4m8A4aLkTxaPG4QSd9O-1">
          <mxGeometry relative="1" as="geometry">
            <mxPoint x="329" y="405" as="sourcePoint" />
            <mxPoint x="385" y="304" as="targetPoint" />
          </mxGeometry>
        </mxCell>
        <mxCell id="Q95-SlDKpTRxNVJRLP6k-3" style="rounded=0;orthogonalLoop=1;jettySize=auto;html=1;exitX=0.5;exitY=0;exitDx=0;exitDy=0;startSize=6;endArrow=none;endFill=0;endSize=2;fontFamily=Manrope;fontSize=8;strokeColor=#98A2AE;fontSource=https%3A%2F%2Ffonts.googleapis.com%2Fcss%3Ffamily%3DManrope;entryX=0.5;entryY=1;entryDx=0;entryDy=0;" parent="1" source="Q95-SlDKpTRxNVJRLP6k-14" target="j4m8A4aLkTxaPG4QSd9O-5" edge="1">
          <mxGeometry relative="1" as="geometry">
            <mxPoint x="327" y="326" as="sourcePoint" />
            <mxPoint x="383" y="302" as="targetPoint" />
          </mxGeometry>
        </mxCell>
        <mxCell id="Q95-SlDKpTRxNVJRLP6k-4" style="rounded=0;orthogonalLoop=1;jettySize=auto;html=1;exitX=0.5;exitY=0;exitDx=0;exitDy=0;entryX=0.25;entryY=1;entryDx=0;entryDy=0;startSize=6;endArrow=none;endFill=0;endSize=2;fontFamily=Manrope;fontSize=8;strokeColor=#98A2AE;fontSource=https%3A%2F%2Ffonts.googleapis.com%2Fcss%3Ffamily%3DManrope;" parent="1" source="Q95-SlDKpTRxNVJRLP6k-14" target="j4m8A4aLkTxaPG4QSd9O-11" edge="1">
          <mxGeometry relative="1" as="geometry">
            <mxPoint x="327" y="326" as="sourcePoint" />
            <mxPoint x="485" y="300" as="targetPoint" />
          </mxGeometry>
        </mxCell>
        <mxCell id="Q95-SlDKpTRxNVJRLP6k-67" style="rounded=0;orthogonalLoop=1;jettySize=auto;html=1;exitX=0.5;exitY=0;exitDx=0;exitDy=0;entryX=0.75;entryY=1;entryDx=0;entryDy=0;startSize=6;endArrow=none;endFill=0;endSize=2;fontFamily=Manrope;fontSize=8;strokeColor=#98A2AE;fontSource=https%3A%2F%2Ffonts.googleapis.com%2Fcss%3Ffamily%3DManrope;" parent="1" source="Q95-SlDKpTRxNVJRLP6k-62" target="j4m8A4aLkTxaPG4QSd9O-5" edge="1">
          <mxGeometry relative="1" as="geometry">
            <mxPoint x="329" y="328" as="sourcePoint" />
            <mxPoint x="383" y="302" as="targetPoint" />
          </mxGeometry>
        </mxCell>
        <mxCell id="Q95-SlDKpTRxNVJRLP6k-68" style="rounded=0;orthogonalLoop=1;jettySize=auto;html=1;exitX=0.5;exitY=1;exitDx=0;exitDy=0;entryX=0.5;entryY=0;entryDx=0;entryDy=0;startSize=6;endArrow=none;endFill=0;endSize=2;fontFamily=Manrope;fontSize=8;strokeColor=#98A2AE;fontSource=https%3A%2F%2Ffonts.googleapis.com%2Fcss%3Ffamily%3DManrope;" parent="1" source="j4m8A4aLkTxaPG4QSd9O-11" target="Q95-SlDKpTRxNVJRLP6k-62" edge="1">
          <mxGeometry relative="1" as="geometry">
            <mxPoint x="485" y="300" as="sourcePoint" />
            <mxPoint x="351" y="304" as="targetPoint" />
          </mxGeometry>
        </mxCell>
        <mxCell id="Q95-SlDKpTRxNVJRLP6k-69" value="&lt;font style=&quot;font-size: 10px&quot;&gt;Leaf switches&lt;br&gt;&lt;/font&gt;" style="text;html=1;align=center;verticalAlign=middle;resizable=0;points=[];autosize=1;fontSize=10;fontFamily=Google Sans;fontStyle=0;fontColor=#FFFFFF;fontSource=https%3A%2F%2Ffonts.googleapis.com%2Fcss%3Ffamily%3DGoogle%2BSans;" parent="1" vertex="1">
          <mxGeometry x="214" y="406" width="80" height="24" as="geometry" />
        </mxCell>
        <mxCell id="Q95-SlDKpTRxNVJRLP6k-61" value="" style="group;fontFamily=Manrope;fontSource=https%3A%2F%2Ffonts.googleapis.com%2Fcss%3Ffamily%3DManrope;" parent="1" vertex="1" connectable="0">
          <mxGeometry x="423" y="403" width="30" height="30" as="geometry" />
        </mxCell>
        <mxCell id="Q95-SlDKpTRxNVJRLP6k-62" value="" style="whiteSpace=wrap;html=1;aspect=fixed;fillColor=#001135;strokeColor=none;connectable=1;allowArrows=1;fontFamily=Manrope;fontSource=https%3A%2F%2Ffonts.googleapis.com%2Fcss%3Ffamily%3DManrope;" parent="Q95-SlDKpTRxNVJRLP6k-61" vertex="1">
          <mxGeometry width="30" height="30" as="geometry" />
        </mxCell>
        <mxCell id="Q95-SlDKpTRxNVJRLP6k-63" value="" style="endArrow=open;html=1;edgeStyle=orthogonalEdgeStyle;rounded=0;endFill=0;startSize=6;endSize=2;strokeColor=#FFFFFF;fontFamily=Manrope;fontSource=https%3A%2F%2Ffonts.googleapis.com%2Fcss%3Ffamily%3DManrope;" parent="Q95-SlDKpTRxNVJRLP6k-61" edge="1">
          <mxGeometry width="50" height="50" relative="1" as="geometry">
            <mxPoint x="3" y="12" as="sourcePoint" />
            <mxPoint x="11" y="3" as="targetPoint" />
            <Array as="points">
              <mxPoint x="11" y="12" />
            </Array>
          </mxGeometry>
        </mxCell>
        <mxCell id="Q95-SlDKpTRxNVJRLP6k-64" value="" style="endArrow=open;html=1;edgeStyle=orthogonalEdgeStyle;rounded=0;endFill=0;startSize=6;endSize=2;strokeColor=#FFFFFF;fontFamily=Manrope;fontSource=https%3A%2F%2Ffonts.googleapis.com%2Fcss%3Ffamily%3DManrope;" parent="Q95-SlDKpTRxNVJRLP6k-61" edge="1">
          <mxGeometry width="50" height="50" relative="1" as="geometry">
            <mxPoint x="11" y="27" as="sourcePoint" />
            <mxPoint x="3" y="19" as="targetPoint" />
            <Array as="points">
              <mxPoint x="11" y="19" />
            </Array>
          </mxGeometry>
        </mxCell>
        <mxCell id="Q95-SlDKpTRxNVJRLP6k-65" value="" style="endArrow=open;html=1;edgeStyle=orthogonalEdgeStyle;rounded=0;endFill=0;startSize=6;endSize=2;strokeColor=#FFFFFF;fontFamily=Manrope;fontSource=https%3A%2F%2Ffonts.googleapis.com%2Fcss%3Ffamily%3DManrope;" parent="Q95-SlDKpTRxNVJRLP6k-61" edge="1">
          <mxGeometry width="50" height="50" relative="1" as="geometry">
            <mxPoint x="18" y="3" as="sourcePoint" />
            <mxPoint x="27" y="12" as="targetPoint" />
            <Array as="points">
              <mxPoint x="18" y="12" />
            </Array>
          </mxGeometry>
        </mxCell>
        <mxCell id="Q95-SlDKpTRxNVJRLP6k-66" value="" style="endArrow=open;html=1;edgeStyle=orthogonalEdgeStyle;rounded=0;endFill=0;startSize=6;endSize=2;strokeColor=#FFFFFF;fontFamily=Manrope;fontSource=https%3A%2F%2Ffonts.googleapis.com%2Fcss%3Ffamily%3DManrope;" parent="Q95-SlDKpTRxNVJRLP6k-61" edge="1">
          <mxGeometry width="50" height="50" relative="1" as="geometry">
            <mxPoint x="27" y="19" as="sourcePoint" />
            <mxPoint x="18" y="27" as="targetPoint" />
            <Array as="points">
              <mxPoint x="18" y="19" />
            </Array>
          </mxGeometry>
        </mxCell>
        <mxCell id="Q95-SlDKpTRxNVJRLP6k-72" value="" style="group" parent="1" vertex="1" connectable="0">
          <mxGeometry x="312" y="403" width="141" height="107" as="geometry" />
        </mxCell>
        <mxCell id="Q95-SlDKpTRxNVJRLP6k-14" value="" style="whiteSpace=wrap;html=1;aspect=fixed;fillColor=#001135;strokeColor=none;connectable=1;allowArrows=1;fontFamily=Manrope;fontSource=https%3A%2F%2Ffonts.googleapis.com%2Fcss%3Ffamily%3DManrope;" parent="Q95-SlDKpTRxNVJRLP6k-72" vertex="1">
          <mxGeometry width="30" height="30" as="geometry" />
        </mxCell>
        <mxCell id="Q95-SlDKpTRxNVJRLP6k-15" value="" style="endArrow=open;html=1;edgeStyle=orthogonalEdgeStyle;rounded=0;endFill=0;startSize=6;endSize=2;strokeColor=#FFFFFF;fontFamily=Manrope;fontSource=https%3A%2F%2Ffonts.googleapis.com%2Fcss%3Ffamily%3DManrope;" parent="Q95-SlDKpTRxNVJRLP6k-72" edge="1">
          <mxGeometry width="50" height="50" as="geometry">
            <mxPoint x="3" y="12" as="sourcePoint" />
            <mxPoint x="11" y="3" as="targetPoint" />
            <Array as="points">
              <mxPoint x="11" y="12" />
            </Array>
          </mxGeometry>
        </mxCell>
        <mxCell id="Q95-SlDKpTRxNVJRLP6k-16" value="" style="endArrow=open;html=1;edgeStyle=orthogonalEdgeStyle;rounded=0;endFill=0;startSize=6;endSize=2;strokeColor=#FFFFFF;fontFamily=Manrope;fontSource=https%3A%2F%2Ffonts.googleapis.com%2Fcss%3Ffamily%3DManrope;" parent="Q95-SlDKpTRxNVJRLP6k-72" edge="1">
          <mxGeometry width="50" height="50" as="geometry">
            <mxPoint x="11" y="27" as="sourcePoint" />
            <mxPoint x="3" y="19" as="targetPoint" />
            <Array as="points">
              <mxPoint x="11" y="19" />
            </Array>
          </mxGeometry>
        </mxCell>
        <mxCell id="Q95-SlDKpTRxNVJRLP6k-17" value="" style="endArrow=open;html=1;edgeStyle=orthogonalEdgeStyle;rounded=0;endFill=0;startSize=6;endSize=2;strokeColor=#FFFFFF;fontFamily=Manrope;fontSource=https%3A%2F%2Ffonts.googleapis.com%2Fcss%3Ffamily%3DManrope;" parent="Q95-SlDKpTRxNVJRLP6k-72" edge="1">
          <mxGeometry width="50" height="50" as="geometry">
            <mxPoint x="18" y="3" as="sourcePoint" />
            <mxPoint x="27" y="12" as="targetPoint" />
            <Array as="points">
              <mxPoint x="18" y="12" />
            </Array>
          </mxGeometry>
        </mxCell>
        <mxCell id="Q95-SlDKpTRxNVJRLP6k-18" value="" style="endArrow=open;html=1;edgeStyle=orthogonalEdgeStyle;rounded=0;endFill=0;startSize=6;endSize=2;strokeColor=#FFFFFF;fontFamily=Manrope;fontSource=https%3A%2F%2Ffonts.googleapis.com%2Fcss%3Ffamily%3DManrope;" parent="Q95-SlDKpTRxNVJRLP6k-72" edge="1">
          <mxGeometry width="50" height="50" as="geometry">
            <mxPoint x="27" y="19" as="sourcePoint" />
            <mxPoint x="18" y="27" as="targetPoint" />
            <Array as="points">
              <mxPoint x="18" y="19" />
            </Array>
          </mxGeometry>
        </mxCell>
        <mxCell id="j4m8A4aLkTxaPG4QSd9O-18" value="" style="ellipse;whiteSpace=wrap;html=1;fillColor=none;strokeColor=#98a2ae;" vertex="1" parent="Q95-SlDKpTRxNVJRLP6k-72">
          <mxGeometry x="59" y="79" width="32" height="4" as="geometry" />
        </mxCell>
        <mxCell id="7Rle8cdR6ZXXvXv7JXDx-1" value="&lt;font style=&quot;font-size: 8px;&quot;&gt;10/25G&lt;/font&gt;" style="text;html=1;align=center;verticalAlign=middle;resizable=0;points=[];autosize=1;fontSize=10;fontFamily=Google Sans;fontStyle=0;fontColor=#FFFFFF;connectable=0;rotation=45;fontSource=https%3A%2F%2Ffonts.googleapis.com%2Fcss%3Ffamily%3DGoogle%2BSans;" vertex="1" parent="Q95-SlDKpTRxNVJRLP6k-72">
          <mxGeometry x="23" y="41.5" width="44" height="24" as="geometry" />
        </mxCell>
        <mxCell id="7Rle8cdR6ZXXvXv7JXDx-2" value="&lt;font style=&quot;font-size: 8px;&quot;&gt;10/25G&lt;/font&gt;" style="text;html=1;align=center;verticalAlign=middle;resizable=0;points=[];autosize=1;fontSize=10;fontFamily=Google Sans;fontStyle=0;fontColor=#FFFFFF;connectable=0;rotation=-52;fontSource=https%3A%2F%2Ffonts.googleapis.com%2Fcss%3Ffamily%3DGoogle%2BSans;" vertex="1" parent="Q95-SlDKpTRxNVJRLP6k-72">
          <mxGeometry x="74" y="47" width="44" height="24" as="geometry" />
        </mxCell>
        <mxCell id="j4m8A4aLkTxaPG4QSd9O-1" value="" style="shape=image;editableCssRules=\.st[02];verticalLabelPosition=bottom;labelBackgroundColor=#ffffff;verticalAlign=top;aspect=fixed;imageAspect=0;image=data:image/svg+xml,PHN2ZyB4bWxucz0iaHR0cDovL3d3dy53My5vcmcvMjAwMC9zdmciIHhtbG5zOnhsaW5rPSJodHRwOi8vd3d3LnczLm9yZy8xOTk5L3hsaW5rIiB2ZXJzaW9uPSIxLjEiIGlkPSJMYXllcl8xIiB4PSIwcHgiIHk9IjBweCIgd2lkdGg9IjE0MS42OTk5OTY5NDgyNDIyIiBoZWlnaHQ9IjE0MS42OTk5OTY5NDgyNDIyIiB2aWV3Qm94PSIwIDAgMTQxLjY5OTk5Njk0ODI0MjIgMTQxLjY5OTk5Njk0ODI0MjIiIHN0eWxlPSJlbmFibGUtYmFja2dyb3VuZDpuZXcgMCAwIDE0MS43IDE0MS43OyIgeG1sOnNwYWNlPSJwcmVzZXJ2ZSI+JiN4YTs8c3R5bGUgdHlwZT0idGV4dC9jc3MiPiYjeGE7CS5zdDB7ZmlsbDojMDAxMTM1O30mI3hhOwkuc3Qxe2ZpbGw6I0ZGRkZGRjt9JiN4YTsJLnN0MntmaWxsOm5vbmU7c3Ryb2tlOiNGRkZGRkY7c3Ryb2tlLXdpZHRoOjQ7c3Ryb2tlLW1pdGVybGltaXQ6MTA7fSYjeGE7CS5zdDN7ZmlsbDpub25lO3N0cm9rZTojRkZGRkZGO3N0cm9rZS13aWR0aDo0O3N0cm9rZS1saW5lam9pbjpyb3VuZDt9JiN4YTsJLnN0NHtmaWxsOiNGRkZGRkY7c3Ryb2tlOiNGRkZGRkY7c3Ryb2tlLW1pdGVybGltaXQ6MTA7fSYjeGE7CS5zdDV7ZmlsbDpub25lO30mI3hhOwkuc3Q2e2ZpbGw6I0ZGRkZGRjtzdHJva2U6I0ZGRkZGRjtzdHJva2Utd2lkdGg6MS42O3N0cm9rZS1taXRlcmxpbWl0OjEwO30mI3hhOwkuc3Q3e2ZpbGw6bm9uZTtzdHJva2U6I0ZGRkZGRjtzdHJva2Utd2lkdGg6NDt9JiN4YTsJLnN0OHtmaWxsOiMwMDExMzU7c3Ryb2tlOiNGRkZGRkY7c3Ryb2tlLXdpZHRoOjQ7c3Ryb2tlLW1pdGVybGltaXQ6MTA7fSYjeGE7CS5zdDl7ZmlsbDpub25lO3N0cm9rZTojRkZGRkZGO3N0cm9rZS13aWR0aDo0LjAwMDI7c3Ryb2tlLW1pdGVybGltaXQ6MTA7fSYjeGE7CS5zdDEwe2ZpbGw6bm9uZTtzdHJva2U6I0ZGRkZGRjtzdHJva2Utd2lkdGg6MC4zO3N0cm9rZS1taXRlcmxpbWl0OjEwO30mI3hhOwkuc3QxMXtmaWxsOm5vbmU7c3Ryb2tlOiNGRkZGRkY7c3Ryb2tlLXdpZHRoOjMuOTk5NTtzdHJva2UtbWl0ZXJsaW1pdDoxMDt9JiN4YTsJLnN0MTJ7ZmlsbDpub25lO3N0cm9rZTojRkZGRkZGO3N0cm9rZS13aWR0aDozLjk5OTY7c3Ryb2tlLW1pdGVybGltaXQ6MTA7fSYjeGE7CS5zdDEze2ZpbGw6bm9uZTtzdHJva2U6I0ZGRkZGRjtzdHJva2Utd2lkdGg6MztzdHJva2UtbWl0ZXJsaW1pdDoxMDt9JiN4YTsJLnN0MTR7ZmlsbDpub25lO3N0cm9rZTojRkZGRkZGO3N0cm9rZS13aWR0aDo0O3N0cm9rZS1saW5lam9pbjpyb3VuZDtzdHJva2UtbWl0ZXJsaW1pdDoxMDt9JiN4YTsJLnN0MTV7ZmlsbDpub25lO3N0cm9rZTojRkZGRkZGO3N0cm9rZS13aWR0aDo0O3N0cm9rZS1saW5lY2FwOnJvdW5kO3N0cm9rZS1saW5lam9pbjpyb3VuZDtzdHJva2UtbWl0ZXJsaW1pdDoxMDt9JiN4YTsJLnN0MTZ7ZmlsbDojMDAxODQ1O3N0cm9rZTojRkZGRkZGO3N0cm9rZS13aWR0aDo0LjM1NjY7c3Ryb2tlLWxpbmVjYXA6cm91bmQ7c3Ryb2tlLWxpbmVqb2luOnJvdW5kO3N0cm9rZS1taXRlcmxpbWl0OjEwO30mI3hhOwkuc3QxN3tmaWxsOm5vbmU7c3Ryb2tlOiNGRkZGRkY7c3Ryb2tlLXdpZHRoOjQ7c3Ryb2tlLWxpbmVjYXA6cm91bmQ7fSYjeGE7CS5zdDE4e2ZpbGw6IzAwMTEzNTtzdHJva2U6I0ZGRkZGRjtzdHJva2Utd2lkdGg6NDtzdHJva2UtbGluZWNhcDpyb3VuZDtzdHJva2UtbGluZWpvaW46cm91bmQ7fSYjeGE7CS5zdDE5e2ZpbGw6I0ZGRkZGRjtzdHJva2U6I0ZGRkZGRjtzdHJva2Utd2lkdGg6MC41O30mI3hhOwkuc3QyMHtmaWxsOm5vbmU7c3Ryb2tlOiNGRkZGRkY7c3Ryb2tlLXdpZHRoOjQ7c3Ryb2tlLWxpbmVjYXA6cm91bmQ7c3Ryb2tlLW1pdGVybGltaXQ6MTA7fSYjeGE7CS5zdDIxe2ZpbGw6I0ZGRkZGRjtzdHJva2U6I0ZGRkZGRjtzdHJva2Utd2lkdGg6NDtzdHJva2UtbWl0ZXJsaW1pdDoxMDt9JiN4YTsJLnN0MjJ7ZmlsbDojMDAxMTM1O3N0cm9rZTojRkZGRkZGO3N0cm9rZS13aWR0aDo0O3N0cm9rZS1saW5lY2FwOnJvdW5kO3N0cm9rZS1taXRlcmxpbWl0OjEwO30mI3hhOwkuc3QyM3tmaWxsOm5vbmU7c3Ryb2tlOiNGRkZGRkY7c3Ryb2tlLXdpZHRoOjQ7c3Ryb2tlLWxpbmVjYXA6cm91bmQ7c3Ryb2tlLWxpbmVqb2luOnJvdW5kO30mI3hhOwkuc3QyNHtmaWxsOm5vbmU7c3Ryb2tlOiNGRkZGRkY7c3Ryb2tlLXdpZHRoOjQuMDAwMTt9JiN4YTsJLnN0MjV7ZmlsbDpub25lO3N0cm9rZTojRkZGRkZGO3N0cm9rZS13aWR0aDo0LjAwMDE7c3Ryb2tlLWxpbmVjYXA6cm91bmQ7fSYjeGE7CS5zdDI2e2ZpbGw6IzAwMTEzNTtzdHJva2U6I0ZGRkZGRjtzdHJva2Utd2lkdGg6NDt9JiN4YTsJLnN0Mjd7ZmlsbDpub25lO3N0cm9rZTojRkZGRkZGO3N0cm9rZS13aWR0aDo0O3N0cm9rZS1taXRlcmxpbWl0OjEwO3N0cm9rZS1kYXNoYXJyYXk6Ny45NjcsMy45ODM1O30mI3hhOwkuc3QyOHtmaWxsOm5vbmU7c3Ryb2tlOiNGRkZGRkY7c3Ryb2tlLXdpZHRoOjQ7c3Ryb2tlLW1pdGVybGltaXQ6MTA7c3Ryb2tlLWRhc2hhcnJheTo2LjU2MTQsMi4xODcxO30mI3hhOwkuc3QyOXtmaWxsOm5vbmU7c3Ryb2tlOiNGRkZGRkY7c3Ryb2tlLXdpZHRoOjQ7c3Ryb2tlLW1pdGVybGltaXQ6MTA7c3Ryb2tlLWRhc2hhcnJheToxNC4zOTA2LDQuNzk2OTt9JiN4YTsJLnN0MzB7ZmlsbDpub25lO3N0cm9rZTojRkZGRkZGO3N0cm9rZS13aWR0aDo0O3N0cm9rZS1taXRlcmxpbWl0OjEwO3N0cm9rZS1kYXNoYXJyYXk6OC44ODM5LDIuOTYxMzt9JiN4YTsJLnN0MzF7ZmlsbDpub25lO3N0cm9rZTojRkZGRkZGO3N0cm9rZS13aWR0aDo0O3N0cm9rZS1taXRlcmxpbWl0OjEwO3N0cm9rZS1kYXNoYXJyYXk6NC4zNzQzO30mI3hhOwkuc3QzMntmaWxsOm5vbmU7c3Ryb2tlOiNGRkZGRkY7c3Ryb2tlLXdpZHRoOjQ7c3Ryb2tlLW1pdGVybGltaXQ6MTA7c3Ryb2tlLWRhc2hhcnJheTo4LjIyNTgsMi43NDE5O30mI3hhOwkuc3QzM3tmaWxsOiMwMDExMzU7c3Ryb2tlOiNGRkZGRkY7c3Ryb2tlLXdpZHRoOjQuMDI1NTtzdHJva2UtbWl0ZXJsaW1pdDoxMDt9JiN4YTs8L3N0eWxlPiYjeGE7PHJlY3QgY2xhc3M9InN0MCIgd2lkdGg9IjE0MS43IiBoZWlnaHQ9IjE0MS43Ii8+JiN4YTs8cGF0aCBjbGFzcz0ic3QxIiBkPSJNNTcuNiwxMTYuMWgyNi41VjI1LjZINTcuNlYxMTYuMXogTTg4LjEsMTIwLjFINTMuNlYyMS42aDM0LjVWMTIwLjF6Ii8+JiN4YTs8cmVjdCB4PSI1NS42IiB5PSIzMy40IiBjbGFzcz0ic3QxIiB3aWR0aD0iMzAuNSIgaGVpZ2h0PSI0Ii8+JiN4YTs8cmVjdCB4PSI1NS42IiB5PSI4MC43IiBjbGFzcz0ic3QxIiB3aWR0aD0iMzAuNSIgaGVpZ2h0PSI0Ii8+JiN4YTs8cGF0aCBjbGFzcz0ic3QxIiBkPSJNNjQuNCw3MC45YzAtMS42LDEuMy0yLjgsMi44LTIuOGMxLjYsMCwyLjgsMS4zLDIuOCwyLjhjMCwxLjYtMS4zLDIuOC0yLjgsMi44QzY1LjYsNzMuNyw2NC40LDcyLjQsNjQuNCw3MC45Ii8+JiN4YTs8L3N2Zz4=;" vertex="1" parent="1">
          <mxGeometry x="374" y="491.00000000000006" width="26" height="26" as="geometry" />
        </mxCell>
        <mxCell id="j4m8A4aLkTxaPG4QSd9O-3" style="rounded=0;orthogonalLoop=1;jettySize=auto;html=1;exitX=0.5;exitY=1;exitDx=0;exitDy=0;startSize=6;endArrow=none;endFill=0;endSize=2;fontFamily=Manrope;fontSize=8;strokeColor=#98A2AE;fontSource=https%3A%2F%2Ffonts.googleapis.com%2Fcss%3Ffamily%3DManrope;entryX=0.75;entryY=0;entryDx=0;entryDy=0;" edge="1" parent="1" source="Q95-SlDKpTRxNVJRLP6k-62" target="j4m8A4aLkTxaPG4QSd9O-1">
          <mxGeometry relative="1" as="geometry">
            <mxPoint x="329" y="435" as="sourcePoint" />
            <mxPoint x="383" y="493" as="targetPoint" />
          </mxGeometry>
        </mxCell>
        <mxCell id="j4m8A4aLkTxaPG4QSd9O-4" value="" style="group" vertex="1" connectable="0" parent="1">
          <mxGeometry x="312" y="294" width="30" height="30" as="geometry" />
        </mxCell>
        <mxCell id="j4m8A4aLkTxaPG4QSd9O-5" value="" style="whiteSpace=wrap;html=1;aspect=fixed;fillColor=#00C9FF;strokeColor=none;connectable=1;allowArrows=1;fontFamily=Manrope;fontSource=https%3A%2F%2Ffonts.googleapis.com%2Fcss%3Ffamily%3DManrope;" vertex="1" parent="j4m8A4aLkTxaPG4QSd9O-4">
          <mxGeometry width="30" height="30" as="geometry" />
        </mxCell>
        <mxCell id="j4m8A4aLkTxaPG4QSd9O-6" value="" style="endArrow=open;html=1;edgeStyle=orthogonalEdgeStyle;rounded=0;endFill=0;startSize=6;endSize=2;strokeColor=#FFFFFF;fontFamily=Manrope;fontSource=https%3A%2F%2Ffonts.googleapis.com%2Fcss%3Ffamily%3DManrope;" edge="1" parent="j4m8A4aLkTxaPG4QSd9O-4">
          <mxGeometry width="50" height="50" as="geometry">
            <mxPoint x="3" y="12" as="sourcePoint" />
            <mxPoint x="11" y="3" as="targetPoint" />
            <Array as="points">
              <mxPoint x="11" y="12" />
            </Array>
          </mxGeometry>
        </mxCell>
        <mxCell id="j4m8A4aLkTxaPG4QSd9O-7" value="" style="endArrow=open;html=1;edgeStyle=orthogonalEdgeStyle;rounded=0;endFill=0;startSize=6;endSize=2;strokeColor=#FFFFFF;fontFamily=Manrope;fontSource=https%3A%2F%2Ffonts.googleapis.com%2Fcss%3Ffamily%3DManrope;" edge="1" parent="j4m8A4aLkTxaPG4QSd9O-4">
          <mxGeometry width="50" height="50" as="geometry">
            <mxPoint x="11" y="27" as="sourcePoint" />
            <mxPoint x="3" y="19" as="targetPoint" />
            <Array as="points">
              <mxPoint x="11" y="19" />
            </Array>
          </mxGeometry>
        </mxCell>
        <mxCell id="j4m8A4aLkTxaPG4QSd9O-8" value="" style="endArrow=open;html=1;edgeStyle=orthogonalEdgeStyle;rounded=0;endFill=0;startSize=6;endSize=2;strokeColor=#FFFFFF;fontFamily=Manrope;fontSource=https%3A%2F%2Ffonts.googleapis.com%2Fcss%3Ffamily%3DManrope;" edge="1" parent="j4m8A4aLkTxaPG4QSd9O-4">
          <mxGeometry width="50" height="50" as="geometry">
            <mxPoint x="18" y="3" as="sourcePoint" />
            <mxPoint x="27" y="12" as="targetPoint" />
            <Array as="points">
              <mxPoint x="18" y="12" />
            </Array>
          </mxGeometry>
        </mxCell>
        <mxCell id="j4m8A4aLkTxaPG4QSd9O-9" value="" style="endArrow=open;html=1;edgeStyle=orthogonalEdgeStyle;rounded=0;endFill=0;startSize=6;endSize=2;strokeColor=#FFFFFF;fontFamily=Manrope;fontSource=https%3A%2F%2Ffonts.googleapis.com%2Fcss%3Ffamily%3DManrope;" edge="1" parent="j4m8A4aLkTxaPG4QSd9O-4">
          <mxGeometry width="50" height="50" as="geometry">
            <mxPoint x="27" y="19" as="sourcePoint" />
            <mxPoint x="18" y="27" as="targetPoint" />
            <Array as="points">
              <mxPoint x="18" y="19" />
            </Array>
          </mxGeometry>
        </mxCell>
        <mxCell id="j4m8A4aLkTxaPG4QSd9O-10" value="" style="group" vertex="1" connectable="0" parent="1">
          <mxGeometry x="423" y="295" width="30" height="30" as="geometry" />
        </mxCell>
        <mxCell id="j4m8A4aLkTxaPG4QSd9O-11" value="" style="whiteSpace=wrap;html=1;aspect=fixed;fillColor=#00C9FF;strokeColor=none;connectable=1;allowArrows=1;fontFamily=Manrope;fontSource=https%3A%2F%2Ffonts.googleapis.com%2Fcss%3Ffamily%3DManrope;" vertex="1" parent="j4m8A4aLkTxaPG4QSd9O-10">
          <mxGeometry width="30" height="30" as="geometry" />
        </mxCell>
        <mxCell id="j4m8A4aLkTxaPG4QSd9O-12" value="" style="endArrow=open;html=1;edgeStyle=orthogonalEdgeStyle;rounded=0;endFill=0;startSize=6;endSize=2;strokeColor=#FFFFFF;fontFamily=Manrope;fontSource=https%3A%2F%2Ffonts.googleapis.com%2Fcss%3Ffamily%3DManrope;" edge="1" parent="j4m8A4aLkTxaPG4QSd9O-10">
          <mxGeometry width="50" height="50" as="geometry">
            <mxPoint x="3" y="12" as="sourcePoint" />
            <mxPoint x="11" y="3" as="targetPoint" />
            <Array as="points">
              <mxPoint x="11" y="12" />
            </Array>
          </mxGeometry>
        </mxCell>
        <mxCell id="j4m8A4aLkTxaPG4QSd9O-13" value="" style="endArrow=open;html=1;edgeStyle=orthogonalEdgeStyle;rounded=0;endFill=0;startSize=6;endSize=2;strokeColor=#FFFFFF;fontFamily=Manrope;fontSource=https%3A%2F%2Ffonts.googleapis.com%2Fcss%3Ffamily%3DManrope;" edge="1" parent="j4m8A4aLkTxaPG4QSd9O-10">
          <mxGeometry width="50" height="50" as="geometry">
            <mxPoint x="11" y="27" as="sourcePoint" />
            <mxPoint x="3" y="19" as="targetPoint" />
            <Array as="points">
              <mxPoint x="11" y="19" />
            </Array>
          </mxGeometry>
        </mxCell>
        <mxCell id="j4m8A4aLkTxaPG4QSd9O-14" value="" style="endArrow=open;html=1;edgeStyle=orthogonalEdgeStyle;rounded=0;endFill=0;startSize=6;endSize=2;strokeColor=#FFFFFF;fontFamily=Manrope;fontSource=https%3A%2F%2Ffonts.googleapis.com%2Fcss%3Ffamily%3DManrope;" edge="1" parent="j4m8A4aLkTxaPG4QSd9O-10">
          <mxGeometry width="50" height="50" as="geometry">
            <mxPoint x="18" y="3" as="sourcePoint" />
            <mxPoint x="27" y="12" as="targetPoint" />
            <Array as="points">
              <mxPoint x="18" y="12" />
            </Array>
          </mxGeometry>
        </mxCell>
        <mxCell id="j4m8A4aLkTxaPG4QSd9O-15" value="" style="endArrow=open;html=1;edgeStyle=orthogonalEdgeStyle;rounded=0;endFill=0;startSize=6;endSize=2;strokeColor=#FFFFFF;fontFamily=Manrope;fontSource=https%3A%2F%2Ffonts.googleapis.com%2Fcss%3Ffamily%3DManrope;" edge="1" parent="j4m8A4aLkTxaPG4QSd9O-10">
          <mxGeometry width="50" height="50" as="geometry">
            <mxPoint x="27" y="19" as="sourcePoint" />
            <mxPoint x="18" y="27" as="targetPoint" />
            <Array as="points">
              <mxPoint x="18" y="19" />
            </Array>
          </mxGeometry>
        </mxCell>
        <mxCell id="j4m8A4aLkTxaPG4QSd9O-16" value="&lt;font style=&quot;font-size: 10px&quot;&gt;Core&amp;nbsp; routers&lt;br&gt;&lt;/font&gt;" style="text;html=1;align=center;verticalAlign=middle;resizable=0;points=[];autosize=1;fontSize=10;fontFamily=Google Sans;fontStyle=0;fontColor=#FFFFFF;fontSource=https%3A%2F%2Ffonts.googleapis.com%2Fcss%3Ffamily%3DGoogle%2BSans;" vertex="1" parent="1">
          <mxGeometry x="218" y="298" width="77" height="24" as="geometry" />
        </mxCell>
        <mxCell id="j4m8A4aLkTxaPG4QSd9O-17" value="&lt;font style=&quot;&quot;&gt;Compute&lt;br&gt;&lt;font color=&quot;#cccccc&quot; style=&quot;font-size: 8px;&quot;&gt;(1 Rack, 50 dual homed servers)&lt;/font&gt;&lt;br&gt;&lt;/font&gt;" style="text;html=1;align=center;verticalAlign=middle;resizable=0;points=[];autosize=1;fontSize=10;fontFamily=Google Sans;fontStyle=0;fontColor=#FFFFFF;fontSource=https%3A%2F%2Ffonts.googleapis.com%2Fcss%3Ffamily%3DGoogle%2BSans;" vertex="1" parent="1">
          <mxGeometry x="192" y="486" width="132" height="36" as="geometry" />
        </mxCell>
        <mxCell id="7Rle8cdR6ZXXvXv7JXDx-3" value="&lt;font style=&quot;font-size: 8px;&quot;&gt;100G&lt;/font&gt;" style="text;html=1;align=center;verticalAlign=middle;resizable=0;points=[];autosize=1;fontSize=10;fontFamily=Google Sans;fontStyle=0;fontColor=#FFFFFF;connectable=0;rotation=-90;fontSource=https%3A%2F%2Ffonts.googleapis.com%2Fcss%3Ffamily%3DGoogle%2BSans;" vertex="1" parent="1">
          <mxGeometry x="302" y="360" width="38" height="24" as="geometry" />
        </mxCell>
        <mxCell id="7Rle8cdR6ZXXvXv7JXDx-4" value="&lt;font style=&quot;font-size: 8px;&quot;&gt;100G&lt;/font&gt;" style="text;html=1;align=center;verticalAlign=middle;resizable=0;points=[];autosize=1;fontSize=10;fontFamily=Google Sans;fontStyle=0;fontColor=#FFFFFF;connectable=0;rotation=-90;fontSource=https%3A%2F%2Ffonts.googleapis.com%2Fcss%3Ffamily%3DGoogle%2BSans;" vertex="1" parent="1">
          <mxGeometry x="413" y="360" width="38" height="24" as="geometry" />
        </mxCell>
      </root>
    </mxGraphModel>
  </diagram>
  <diagram name="[1] access link failure" id="jBHNXM4qxhNSrjRj13qM">
    <mxGraphModel dx="922" dy="499" grid="0" gridSize="2" guides="1" tooltips="1" connect="1" arrows="1" fold="1" page="1" pageScale="1" pageWidth="827" pageHeight="1169" background="#4D5766" math="0" shadow="0">
      <root>
        <mxCell id="F2D_igmeonf07bmUXP3F-0" />
        <mxCell id="F2D_igmeonf07bmUXP3F-1" parent="F2D_igmeonf07bmUXP3F-0" />
        <mxCell id="F2D_igmeonf07bmUXP3F-2" style="rounded=0;orthogonalLoop=1;jettySize=auto;html=1;exitX=0.5;exitY=0;exitDx=0;exitDy=0;startSize=6;endArrow=none;endFill=0;endSize=2;fontFamily=Manrope;fontSize=8;strokeColor=#98A2AE;fontSource=https%3A%2F%2Ffonts.googleapis.com%2Fcss%3Ffamily%3DManrope;entryX=0.5;entryY=1;entryDx=0;entryDy=0;" edge="1" parent="F2D_igmeonf07bmUXP3F-1" source="F2D_igmeonf07bmUXP3F-14" target="F2D_igmeonf07bmUXP3F-26">
          <mxGeometry relative="1" as="geometry">
            <mxPoint x="327" y="326" as="sourcePoint" />
            <mxPoint x="383" y="302" as="targetPoint" />
          </mxGeometry>
        </mxCell>
        <mxCell id="F2D_igmeonf07bmUXP3F-3" style="rounded=0;orthogonalLoop=1;jettySize=auto;html=1;exitX=0.5;exitY=0;exitDx=0;exitDy=0;entryX=0.25;entryY=1;entryDx=0;entryDy=0;startSize=6;endArrow=none;endFill=0;endSize=2;fontFamily=Manrope;fontSize=8;strokeColor=#98A2AE;fontSource=https%3A%2F%2Ffonts.googleapis.com%2Fcss%3Ffamily%3DManrope;" edge="1" parent="F2D_igmeonf07bmUXP3F-1" source="F2D_igmeonf07bmUXP3F-14" target="F2D_igmeonf07bmUXP3F-32">
          <mxGeometry relative="1" as="geometry">
            <mxPoint x="327" y="326" as="sourcePoint" />
            <mxPoint x="485" y="300" as="targetPoint" />
          </mxGeometry>
        </mxCell>
        <mxCell id="F2D_igmeonf07bmUXP3F-4" style="rounded=0;orthogonalLoop=1;jettySize=auto;html=1;exitX=0.5;exitY=0;exitDx=0;exitDy=0;entryX=0.75;entryY=1;entryDx=0;entryDy=0;startSize=6;endArrow=none;endFill=0;endSize=2;fontFamily=Manrope;fontSize=8;strokeColor=#98A2AE;fontSource=https%3A%2F%2Ffonts.googleapis.com%2Fcss%3Ffamily%3DManrope;" edge="1" parent="F2D_igmeonf07bmUXP3F-1" source="F2D_igmeonf07bmUXP3F-8" target="F2D_igmeonf07bmUXP3F-26">
          <mxGeometry relative="1" as="geometry">
            <mxPoint x="329" y="328" as="sourcePoint" />
            <mxPoint x="383" y="302" as="targetPoint" />
          </mxGeometry>
        </mxCell>
        <mxCell id="F2D_igmeonf07bmUXP3F-5" style="rounded=0;orthogonalLoop=1;jettySize=auto;html=1;exitX=0.5;exitY=1;exitDx=0;exitDy=0;entryX=0.5;entryY=0;entryDx=0;entryDy=0;startSize=6;endArrow=none;endFill=0;endSize=2;fontFamily=Manrope;fontSize=8;strokeColor=#98A2AE;fontSource=https%3A%2F%2Ffonts.googleapis.com%2Fcss%3Ffamily%3DManrope;" edge="1" parent="F2D_igmeonf07bmUXP3F-1" source="F2D_igmeonf07bmUXP3F-32" target="F2D_igmeonf07bmUXP3F-8">
          <mxGeometry relative="1" as="geometry">
            <mxPoint x="485" y="300" as="sourcePoint" />
            <mxPoint x="351" y="304" as="targetPoint" />
          </mxGeometry>
        </mxCell>
        <mxCell id="F2D_igmeonf07bmUXP3F-7" value="" style="group;fontFamily=Manrope;fontSource=https%3A%2F%2Ffonts.googleapis.com%2Fcss%3Ffamily%3DManrope;" vertex="1" connectable="0" parent="F2D_igmeonf07bmUXP3F-1">
          <mxGeometry x="423" y="403" width="30" height="30" as="geometry" />
        </mxCell>
        <mxCell id="F2D_igmeonf07bmUXP3F-8" value="" style="whiteSpace=wrap;html=1;aspect=fixed;fillColor=#001135;strokeColor=none;connectable=1;allowArrows=1;fontFamily=Manrope;fontSource=https%3A%2F%2Ffonts.googleapis.com%2Fcss%3Ffamily%3DManrope;" vertex="1" parent="F2D_igmeonf07bmUXP3F-7">
          <mxGeometry width="30" height="30" as="geometry" />
        </mxCell>
        <mxCell id="F2D_igmeonf07bmUXP3F-9" value="" style="endArrow=open;html=1;edgeStyle=orthogonalEdgeStyle;rounded=0;endFill=0;startSize=6;endSize=2;strokeColor=#FFFFFF;fontFamily=Manrope;fontSource=https%3A%2F%2Ffonts.googleapis.com%2Fcss%3Ffamily%3DManrope;" edge="1" parent="F2D_igmeonf07bmUXP3F-7">
          <mxGeometry width="50" height="50" relative="1" as="geometry">
            <mxPoint x="3" y="12" as="sourcePoint" />
            <mxPoint x="11" y="3" as="targetPoint" />
            <Array as="points">
              <mxPoint x="11" y="12" />
            </Array>
          </mxGeometry>
        </mxCell>
        <mxCell id="F2D_igmeonf07bmUXP3F-10" value="" style="endArrow=open;html=1;edgeStyle=orthogonalEdgeStyle;rounded=0;endFill=0;startSize=6;endSize=2;strokeColor=#FFFFFF;fontFamily=Manrope;fontSource=https%3A%2F%2Ffonts.googleapis.com%2Fcss%3Ffamily%3DManrope;" edge="1" parent="F2D_igmeonf07bmUXP3F-7">
          <mxGeometry width="50" height="50" relative="1" as="geometry">
            <mxPoint x="11" y="27" as="sourcePoint" />
            <mxPoint x="3" y="19" as="targetPoint" />
            <Array as="points">
              <mxPoint x="11" y="19" />
            </Array>
          </mxGeometry>
        </mxCell>
        <mxCell id="F2D_igmeonf07bmUXP3F-11" value="" style="endArrow=open;html=1;edgeStyle=orthogonalEdgeStyle;rounded=0;endFill=0;startSize=6;endSize=2;strokeColor=#FFFFFF;fontFamily=Manrope;fontSource=https%3A%2F%2Ffonts.googleapis.com%2Fcss%3Ffamily%3DManrope;" edge="1" parent="F2D_igmeonf07bmUXP3F-7">
          <mxGeometry width="50" height="50" relative="1" as="geometry">
            <mxPoint x="18" y="3" as="sourcePoint" />
            <mxPoint x="27" y="12" as="targetPoint" />
            <Array as="points">
              <mxPoint x="18" y="12" />
            </Array>
          </mxGeometry>
        </mxCell>
        <mxCell id="F2D_igmeonf07bmUXP3F-12" value="" style="endArrow=open;html=1;edgeStyle=orthogonalEdgeStyle;rounded=0;endFill=0;startSize=6;endSize=2;strokeColor=#FFFFFF;fontFamily=Manrope;fontSource=https%3A%2F%2Ffonts.googleapis.com%2Fcss%3Ffamily%3DManrope;" edge="1" parent="F2D_igmeonf07bmUXP3F-7">
          <mxGeometry width="50" height="50" relative="1" as="geometry">
            <mxPoint x="27" y="19" as="sourcePoint" />
            <mxPoint x="18" y="27" as="targetPoint" />
            <Array as="points">
              <mxPoint x="18" y="19" />
            </Array>
          </mxGeometry>
        </mxCell>
        <mxCell id="F2D_igmeonf07bmUXP3F-13" value="" style="group" vertex="1" connectable="0" parent="F2D_igmeonf07bmUXP3F-1">
          <mxGeometry x="312" y="403" width="141" height="107" as="geometry" />
        </mxCell>
        <mxCell id="F2D_igmeonf07bmUXP3F-14" value="" style="whiteSpace=wrap;html=1;aspect=fixed;fillColor=#001135;strokeColor=none;connectable=1;allowArrows=1;fontFamily=Manrope;fontSource=https%3A%2F%2Ffonts.googleapis.com%2Fcss%3Ffamily%3DManrope;" vertex="1" parent="F2D_igmeonf07bmUXP3F-13">
          <mxGeometry width="30" height="30" as="geometry" />
        </mxCell>
        <mxCell id="F2D_igmeonf07bmUXP3F-15" value="" style="endArrow=open;html=1;edgeStyle=orthogonalEdgeStyle;rounded=0;endFill=0;startSize=6;endSize=2;strokeColor=#FFFFFF;fontFamily=Manrope;fontSource=https%3A%2F%2Ffonts.googleapis.com%2Fcss%3Ffamily%3DManrope;" edge="1" parent="F2D_igmeonf07bmUXP3F-13">
          <mxGeometry width="50" height="50" as="geometry">
            <mxPoint x="3" y="12" as="sourcePoint" />
            <mxPoint x="11" y="3" as="targetPoint" />
            <Array as="points">
              <mxPoint x="11" y="12" />
            </Array>
          </mxGeometry>
        </mxCell>
        <mxCell id="F2D_igmeonf07bmUXP3F-16" value="" style="endArrow=open;html=1;edgeStyle=orthogonalEdgeStyle;rounded=0;endFill=0;startSize=6;endSize=2;strokeColor=#FFFFFF;fontFamily=Manrope;fontSource=https%3A%2F%2Ffonts.googleapis.com%2Fcss%3Ffamily%3DManrope;" edge="1" parent="F2D_igmeonf07bmUXP3F-13">
          <mxGeometry width="50" height="50" as="geometry">
            <mxPoint x="11" y="27" as="sourcePoint" />
            <mxPoint x="3" y="19" as="targetPoint" />
            <Array as="points">
              <mxPoint x="11" y="19" />
            </Array>
          </mxGeometry>
        </mxCell>
        <mxCell id="F2D_igmeonf07bmUXP3F-17" value="" style="endArrow=open;html=1;edgeStyle=orthogonalEdgeStyle;rounded=0;endFill=0;startSize=6;endSize=2;strokeColor=#FFFFFF;fontFamily=Manrope;fontSource=https%3A%2F%2Ffonts.googleapis.com%2Fcss%3Ffamily%3DManrope;" edge="1" parent="F2D_igmeonf07bmUXP3F-13">
          <mxGeometry width="50" height="50" as="geometry">
            <mxPoint x="18" y="3" as="sourcePoint" />
            <mxPoint x="27" y="12" as="targetPoint" />
            <Array as="points">
              <mxPoint x="18" y="12" />
            </Array>
          </mxGeometry>
        </mxCell>
        <mxCell id="F2D_igmeonf07bmUXP3F-18" value="" style="endArrow=open;html=1;edgeStyle=orthogonalEdgeStyle;rounded=0;endFill=0;startSize=6;endSize=2;strokeColor=#FFFFFF;fontFamily=Manrope;fontSource=https%3A%2F%2Ffonts.googleapis.com%2Fcss%3Ffamily%3DManrope;" edge="1" parent="F2D_igmeonf07bmUXP3F-13">
          <mxGeometry width="50" height="50" as="geometry">
            <mxPoint x="27" y="19" as="sourcePoint" />
            <mxPoint x="18" y="27" as="targetPoint" />
            <Array as="points">
              <mxPoint x="18" y="19" />
            </Array>
          </mxGeometry>
        </mxCell>
        <mxCell id="F2D_igmeonf07bmUXP3F-19" value="" style="ellipse;whiteSpace=wrap;html=1;fillColor=none;strokeColor=#98a2ae;" vertex="1" parent="F2D_igmeonf07bmUXP3F-13">
          <mxGeometry x="59" y="79" width="32" height="4" as="geometry" />
        </mxCell>
        <mxCell id="F2D_igmeonf07bmUXP3F-20" value="&lt;font style=&quot;font-size: 8px;&quot;&gt;10/25G&lt;/font&gt;" style="text;html=1;align=center;verticalAlign=middle;resizable=0;points=[];autosize=1;fontSize=10;fontFamily=Google Sans;fontStyle=0;fontColor=#FFFFFF;connectable=0;rotation=45;fontSource=https%3A%2F%2Ffonts.googleapis.com%2Fcss%3Ffamily%3DGoogle%2BSans;" vertex="1" parent="F2D_igmeonf07bmUXP3F-13">
          <mxGeometry x="23" y="41.5" width="44" height="24" as="geometry" />
        </mxCell>
        <mxCell id="F2D_igmeonf07bmUXP3F-21" value="&lt;font style=&quot;font-size: 8px;&quot;&gt;10/25G&lt;/font&gt;" style="text;html=1;align=center;verticalAlign=middle;resizable=0;points=[];autosize=1;fontSize=10;fontFamily=Google Sans;fontStyle=0;fontColor=#FFFFFF;connectable=0;rotation=-52;fontSource=https%3A%2F%2Ffonts.googleapis.com%2Fcss%3Ffamily%3DGoogle%2BSans;" vertex="1" parent="F2D_igmeonf07bmUXP3F-13">
          <mxGeometry x="74" y="47" width="44" height="24" as="geometry" />
        </mxCell>
        <mxCell id="F2D_igmeonf07bmUXP3F-22" value="" style="shape=image;editableCssRules=\.st[02];verticalLabelPosition=bottom;labelBackgroundColor=#ffffff;verticalAlign=top;aspect=fixed;imageAspect=0;image=data:image/svg+xml,PHN2ZyB4bWxucz0iaHR0cDovL3d3dy53My5vcmcvMjAwMC9zdmciIHhtbG5zOnhsaW5rPSJodHRwOi8vd3d3LnczLm9yZy8xOTk5L3hsaW5rIiB2ZXJzaW9uPSIxLjEiIGlkPSJMYXllcl8xIiB4PSIwcHgiIHk9IjBweCIgd2lkdGg9IjE0MS42OTk5OTY5NDgyNDIyIiBoZWlnaHQ9IjE0MS42OTk5OTY5NDgyNDIyIiB2aWV3Qm94PSIwIDAgMTQxLjY5OTk5Njk0ODI0MjIgMTQxLjY5OTk5Njk0ODI0MjIiIHN0eWxlPSJlbmFibGUtYmFja2dyb3VuZDpuZXcgMCAwIDE0MS43IDE0MS43OyIgeG1sOnNwYWNlPSJwcmVzZXJ2ZSI+JiN4YTs8c3R5bGUgdHlwZT0idGV4dC9jc3MiPiYjeGE7CS5zdDB7ZmlsbDojMDAxMTM1O30mI3hhOwkuc3Qxe2ZpbGw6I0ZGRkZGRjt9JiN4YTsJLnN0MntmaWxsOm5vbmU7c3Ryb2tlOiNGRkZGRkY7c3Ryb2tlLXdpZHRoOjQ7c3Ryb2tlLW1pdGVybGltaXQ6MTA7fSYjeGE7CS5zdDN7ZmlsbDpub25lO3N0cm9rZTojRkZGRkZGO3N0cm9rZS13aWR0aDo0O3N0cm9rZS1saW5lam9pbjpyb3VuZDt9JiN4YTsJLnN0NHtmaWxsOiNGRkZGRkY7c3Ryb2tlOiNGRkZGRkY7c3Ryb2tlLW1pdGVybGltaXQ6MTA7fSYjeGE7CS5zdDV7ZmlsbDpub25lO30mI3hhOwkuc3Q2e2ZpbGw6I0ZGRkZGRjtzdHJva2U6I0ZGRkZGRjtzdHJva2Utd2lkdGg6MS42O3N0cm9rZS1taXRlcmxpbWl0OjEwO30mI3hhOwkuc3Q3e2ZpbGw6bm9uZTtzdHJva2U6I0ZGRkZGRjtzdHJva2Utd2lkdGg6NDt9JiN4YTsJLnN0OHtmaWxsOiMwMDExMzU7c3Ryb2tlOiNGRkZGRkY7c3Ryb2tlLXdpZHRoOjQ7c3Ryb2tlLW1pdGVybGltaXQ6MTA7fSYjeGE7CS5zdDl7ZmlsbDpub25lO3N0cm9rZTojRkZGRkZGO3N0cm9rZS13aWR0aDo0LjAwMDI7c3Ryb2tlLW1pdGVybGltaXQ6MTA7fSYjeGE7CS5zdDEwe2ZpbGw6bm9uZTtzdHJva2U6I0ZGRkZGRjtzdHJva2Utd2lkdGg6MC4zO3N0cm9rZS1taXRlcmxpbWl0OjEwO30mI3hhOwkuc3QxMXtmaWxsOm5vbmU7c3Ryb2tlOiNGRkZGRkY7c3Ryb2tlLXdpZHRoOjMuOTk5NTtzdHJva2UtbWl0ZXJsaW1pdDoxMDt9JiN4YTsJLnN0MTJ7ZmlsbDpub25lO3N0cm9rZTojRkZGRkZGO3N0cm9rZS13aWR0aDozLjk5OTY7c3Ryb2tlLW1pdGVybGltaXQ6MTA7fSYjeGE7CS5zdDEze2ZpbGw6bm9uZTtzdHJva2U6I0ZGRkZGRjtzdHJva2Utd2lkdGg6MztzdHJva2UtbWl0ZXJsaW1pdDoxMDt9JiN4YTsJLnN0MTR7ZmlsbDpub25lO3N0cm9rZTojRkZGRkZGO3N0cm9rZS13aWR0aDo0O3N0cm9rZS1saW5lam9pbjpyb3VuZDtzdHJva2UtbWl0ZXJsaW1pdDoxMDt9JiN4YTsJLnN0MTV7ZmlsbDpub25lO3N0cm9rZTojRkZGRkZGO3N0cm9rZS13aWR0aDo0O3N0cm9rZS1saW5lY2FwOnJvdW5kO3N0cm9rZS1saW5lam9pbjpyb3VuZDtzdHJva2UtbWl0ZXJsaW1pdDoxMDt9JiN4YTsJLnN0MTZ7ZmlsbDojMDAxODQ1O3N0cm9rZTojRkZGRkZGO3N0cm9rZS13aWR0aDo0LjM1NjY7c3Ryb2tlLWxpbmVjYXA6cm91bmQ7c3Ryb2tlLWxpbmVqb2luOnJvdW5kO3N0cm9rZS1taXRlcmxpbWl0OjEwO30mI3hhOwkuc3QxN3tmaWxsOm5vbmU7c3Ryb2tlOiNGRkZGRkY7c3Ryb2tlLXdpZHRoOjQ7c3Ryb2tlLWxpbmVjYXA6cm91bmQ7fSYjeGE7CS5zdDE4e2ZpbGw6IzAwMTEzNTtzdHJva2U6I0ZGRkZGRjtzdHJva2Utd2lkdGg6NDtzdHJva2UtbGluZWNhcDpyb3VuZDtzdHJva2UtbGluZWpvaW46cm91bmQ7fSYjeGE7CS5zdDE5e2ZpbGw6I0ZGRkZGRjtzdHJva2U6I0ZGRkZGRjtzdHJva2Utd2lkdGg6MC41O30mI3hhOwkuc3QyMHtmaWxsOm5vbmU7c3Ryb2tlOiNGRkZGRkY7c3Ryb2tlLXdpZHRoOjQ7c3Ryb2tlLWxpbmVjYXA6cm91bmQ7c3Ryb2tlLW1pdGVybGltaXQ6MTA7fSYjeGE7CS5zdDIxe2ZpbGw6I0ZGRkZGRjtzdHJva2U6I0ZGRkZGRjtzdHJva2Utd2lkdGg6NDtzdHJva2UtbWl0ZXJsaW1pdDoxMDt9JiN4YTsJLnN0MjJ7ZmlsbDojMDAxMTM1O3N0cm9rZTojRkZGRkZGO3N0cm9rZS13aWR0aDo0O3N0cm9rZS1saW5lY2FwOnJvdW5kO3N0cm9rZS1taXRlcmxpbWl0OjEwO30mI3hhOwkuc3QyM3tmaWxsOm5vbmU7c3Ryb2tlOiNGRkZGRkY7c3Ryb2tlLXdpZHRoOjQ7c3Ryb2tlLWxpbmVjYXA6cm91bmQ7c3Ryb2tlLWxpbmVqb2luOnJvdW5kO30mI3hhOwkuc3QyNHtmaWxsOm5vbmU7c3Ryb2tlOiNGRkZGRkY7c3Ryb2tlLXdpZHRoOjQuMDAwMTt9JiN4YTsJLnN0MjV7ZmlsbDpub25lO3N0cm9rZTojRkZGRkZGO3N0cm9rZS13aWR0aDo0LjAwMDE7c3Ryb2tlLWxpbmVjYXA6cm91bmQ7fSYjeGE7CS5zdDI2e2ZpbGw6IzAwMTEzNTtzdHJva2U6I0ZGRkZGRjtzdHJva2Utd2lkdGg6NDt9JiN4YTsJLnN0Mjd7ZmlsbDpub25lO3N0cm9rZTojRkZGRkZGO3N0cm9rZS13aWR0aDo0O3N0cm9rZS1taXRlcmxpbWl0OjEwO3N0cm9rZS1kYXNoYXJyYXk6Ny45NjcsMy45ODM1O30mI3hhOwkuc3QyOHtmaWxsOm5vbmU7c3Ryb2tlOiNGRkZGRkY7c3Ryb2tlLXdpZHRoOjQ7c3Ryb2tlLW1pdGVybGltaXQ6MTA7c3Ryb2tlLWRhc2hhcnJheTo2LjU2MTQsMi4xODcxO30mI3hhOwkuc3QyOXtmaWxsOm5vbmU7c3Ryb2tlOiNGRkZGRkY7c3Ryb2tlLXdpZHRoOjQ7c3Ryb2tlLW1pdGVybGltaXQ6MTA7c3Ryb2tlLWRhc2hhcnJheToxNC4zOTA2LDQuNzk2OTt9JiN4YTsJLnN0MzB7ZmlsbDpub25lO3N0cm9rZTojRkZGRkZGO3N0cm9rZS13aWR0aDo0O3N0cm9rZS1taXRlcmxpbWl0OjEwO3N0cm9rZS1kYXNoYXJyYXk6OC44ODM5LDIuOTYxMzt9JiN4YTsJLnN0MzF7ZmlsbDpub25lO3N0cm9rZTojRkZGRkZGO3N0cm9rZS13aWR0aDo0O3N0cm9rZS1taXRlcmxpbWl0OjEwO3N0cm9rZS1kYXNoYXJyYXk6NC4zNzQzO30mI3hhOwkuc3QzMntmaWxsOm5vbmU7c3Ryb2tlOiNGRkZGRkY7c3Ryb2tlLXdpZHRoOjQ7c3Ryb2tlLW1pdGVybGltaXQ6MTA7c3Ryb2tlLWRhc2hhcnJheTo4LjIyNTgsMi43NDE5O30mI3hhOwkuc3QzM3tmaWxsOiMwMDExMzU7c3Ryb2tlOiNGRkZGRkY7c3Ryb2tlLXdpZHRoOjQuMDI1NTtzdHJva2UtbWl0ZXJsaW1pdDoxMDt9JiN4YTs8L3N0eWxlPiYjeGE7PHJlY3QgY2xhc3M9InN0MCIgd2lkdGg9IjE0MS43IiBoZWlnaHQ9IjE0MS43Ii8+JiN4YTs8cGF0aCBjbGFzcz0ic3QxIiBkPSJNNTcuNiwxMTYuMWgyNi41VjI1LjZINTcuNlYxMTYuMXogTTg4LjEsMTIwLjFINTMuNlYyMS42aDM0LjVWMTIwLjF6Ii8+JiN4YTs8cmVjdCB4PSI1NS42IiB5PSIzMy40IiBjbGFzcz0ic3QxIiB3aWR0aD0iMzAuNSIgaGVpZ2h0PSI0Ii8+JiN4YTs8cmVjdCB4PSI1NS42IiB5PSI4MC43IiBjbGFzcz0ic3QxIiB3aWR0aD0iMzAuNSIgaGVpZ2h0PSI0Ii8+JiN4YTs8cGF0aCBjbGFzcz0ic3QxIiBkPSJNNjQuNCw3MC45YzAtMS42LDEuMy0yLjgsMi44LTIuOGMxLjYsMCwyLjgsMS4zLDIuOCwyLjhjMCwxLjYtMS4zLDIuOC0yLjgsMi44QzY1LjYsNzMuNyw2NC40LDcyLjQsNjQuNCw3MC45Ii8+JiN4YTs8L3N2Zz4=;" vertex="1" parent="F2D_igmeonf07bmUXP3F-1">
          <mxGeometry x="374" y="491.00000000000006" width="26" height="26" as="geometry" />
        </mxCell>
        <mxCell id="F2D_igmeonf07bmUXP3F-23" style="rounded=0;orthogonalLoop=1;jettySize=auto;html=1;exitX=0.5;exitY=1;exitDx=0;exitDy=0;startSize=6;endArrow=none;endFill=0;endSize=2;fontFamily=Manrope;fontSize=8;strokeColor=#98A2AE;fontSource=https%3A%2F%2Ffonts.googleapis.com%2Fcss%3Ffamily%3DManrope;entryX=0.25;entryY=0;entryDx=0;entryDy=0;" edge="1" parent="F2D_igmeonf07bmUXP3F-1" source="F2D_igmeonf07bmUXP3F-14" target="F2D_igmeonf07bmUXP3F-22">
          <mxGeometry relative="1" as="geometry">
            <mxPoint x="329" y="405" as="sourcePoint" />
            <mxPoint x="385" y="304" as="targetPoint" />
          </mxGeometry>
        </mxCell>
        <mxCell id="F2D_igmeonf07bmUXP3F-24" style="rounded=0;orthogonalLoop=1;jettySize=auto;html=1;exitX=0.5;exitY=1;exitDx=0;exitDy=0;startSize=6;endArrow=none;endFill=0;endSize=2;fontFamily=Manrope;fontSize=8;strokeColor=#98A2AE;fontSource=https%3A%2F%2Ffonts.googleapis.com%2Fcss%3Ffamily%3DManrope;entryX=0.75;entryY=0;entryDx=0;entryDy=0;" edge="1" parent="F2D_igmeonf07bmUXP3F-1" source="F2D_igmeonf07bmUXP3F-8" target="F2D_igmeonf07bmUXP3F-22">
          <mxGeometry relative="1" as="geometry">
            <mxPoint x="329" y="435" as="sourcePoint" />
            <mxPoint x="383" y="493" as="targetPoint" />
          </mxGeometry>
        </mxCell>
        <mxCell id="F2D_igmeonf07bmUXP3F-25" value="" style="group" vertex="1" connectable="0" parent="F2D_igmeonf07bmUXP3F-1">
          <mxGeometry x="312" y="294" width="30" height="30" as="geometry" />
        </mxCell>
        <mxCell id="F2D_igmeonf07bmUXP3F-26" value="" style="whiteSpace=wrap;html=1;aspect=fixed;fillColor=#00C9FF;strokeColor=none;connectable=1;allowArrows=1;fontFamily=Manrope;fontSource=https%3A%2F%2Ffonts.googleapis.com%2Fcss%3Ffamily%3DManrope;" vertex="1" parent="F2D_igmeonf07bmUXP3F-25">
          <mxGeometry width="30" height="30" as="geometry" />
        </mxCell>
        <mxCell id="F2D_igmeonf07bmUXP3F-27" value="" style="endArrow=open;html=1;edgeStyle=orthogonalEdgeStyle;rounded=0;endFill=0;startSize=6;endSize=2;strokeColor=#FFFFFF;fontFamily=Manrope;fontSource=https%3A%2F%2Ffonts.googleapis.com%2Fcss%3Ffamily%3DManrope;" edge="1" parent="F2D_igmeonf07bmUXP3F-25">
          <mxGeometry width="50" height="50" as="geometry">
            <mxPoint x="3" y="12" as="sourcePoint" />
            <mxPoint x="11" y="3" as="targetPoint" />
            <Array as="points">
              <mxPoint x="11" y="12" />
            </Array>
          </mxGeometry>
        </mxCell>
        <mxCell id="F2D_igmeonf07bmUXP3F-28" value="" style="endArrow=open;html=1;edgeStyle=orthogonalEdgeStyle;rounded=0;endFill=0;startSize=6;endSize=2;strokeColor=#FFFFFF;fontFamily=Manrope;fontSource=https%3A%2F%2Ffonts.googleapis.com%2Fcss%3Ffamily%3DManrope;" edge="1" parent="F2D_igmeonf07bmUXP3F-25">
          <mxGeometry width="50" height="50" as="geometry">
            <mxPoint x="11" y="27" as="sourcePoint" />
            <mxPoint x="3" y="19" as="targetPoint" />
            <Array as="points">
              <mxPoint x="11" y="19" />
            </Array>
          </mxGeometry>
        </mxCell>
        <mxCell id="F2D_igmeonf07bmUXP3F-29" value="" style="endArrow=open;html=1;edgeStyle=orthogonalEdgeStyle;rounded=0;endFill=0;startSize=6;endSize=2;strokeColor=#FFFFFF;fontFamily=Manrope;fontSource=https%3A%2F%2Ffonts.googleapis.com%2Fcss%3Ffamily%3DManrope;" edge="1" parent="F2D_igmeonf07bmUXP3F-25">
          <mxGeometry width="50" height="50" as="geometry">
            <mxPoint x="18" y="3" as="sourcePoint" />
            <mxPoint x="27" y="12" as="targetPoint" />
            <Array as="points">
              <mxPoint x="18" y="12" />
            </Array>
          </mxGeometry>
        </mxCell>
        <mxCell id="F2D_igmeonf07bmUXP3F-30" value="" style="endArrow=open;html=1;edgeStyle=orthogonalEdgeStyle;rounded=0;endFill=0;startSize=6;endSize=2;strokeColor=#FFFFFF;fontFamily=Manrope;fontSource=https%3A%2F%2Ffonts.googleapis.com%2Fcss%3Ffamily%3DManrope;" edge="1" parent="F2D_igmeonf07bmUXP3F-25">
          <mxGeometry width="50" height="50" as="geometry">
            <mxPoint x="27" y="19" as="sourcePoint" />
            <mxPoint x="18" y="27" as="targetPoint" />
            <Array as="points">
              <mxPoint x="18" y="19" />
            </Array>
          </mxGeometry>
        </mxCell>
        <mxCell id="F2D_igmeonf07bmUXP3F-31" value="" style="group" vertex="1" connectable="0" parent="F2D_igmeonf07bmUXP3F-1">
          <mxGeometry x="423" y="295" width="30" height="30" as="geometry" />
        </mxCell>
        <mxCell id="F2D_igmeonf07bmUXP3F-32" value="" style="whiteSpace=wrap;html=1;aspect=fixed;fillColor=#00C9FF;strokeColor=none;connectable=1;allowArrows=1;fontFamily=Manrope;fontSource=https%3A%2F%2Ffonts.googleapis.com%2Fcss%3Ffamily%3DManrope;" vertex="1" parent="F2D_igmeonf07bmUXP3F-31">
          <mxGeometry width="30" height="30" as="geometry" />
        </mxCell>
        <mxCell id="F2D_igmeonf07bmUXP3F-33" value="" style="endArrow=open;html=1;edgeStyle=orthogonalEdgeStyle;rounded=0;endFill=0;startSize=6;endSize=2;strokeColor=#FFFFFF;fontFamily=Manrope;fontSource=https%3A%2F%2Ffonts.googleapis.com%2Fcss%3Ffamily%3DManrope;" edge="1" parent="F2D_igmeonf07bmUXP3F-31">
          <mxGeometry width="50" height="50" as="geometry">
            <mxPoint x="3" y="12" as="sourcePoint" />
            <mxPoint x="11" y="3" as="targetPoint" />
            <Array as="points">
              <mxPoint x="11" y="12" />
            </Array>
          </mxGeometry>
        </mxCell>
        <mxCell id="F2D_igmeonf07bmUXP3F-34" value="" style="endArrow=open;html=1;edgeStyle=orthogonalEdgeStyle;rounded=0;endFill=0;startSize=6;endSize=2;strokeColor=#FFFFFF;fontFamily=Manrope;fontSource=https%3A%2F%2Ffonts.googleapis.com%2Fcss%3Ffamily%3DManrope;" edge="1" parent="F2D_igmeonf07bmUXP3F-31">
          <mxGeometry width="50" height="50" as="geometry">
            <mxPoint x="11" y="27" as="sourcePoint" />
            <mxPoint x="3" y="19" as="targetPoint" />
            <Array as="points">
              <mxPoint x="11" y="19" />
            </Array>
          </mxGeometry>
        </mxCell>
        <mxCell id="F2D_igmeonf07bmUXP3F-35" value="" style="endArrow=open;html=1;edgeStyle=orthogonalEdgeStyle;rounded=0;endFill=0;startSize=6;endSize=2;strokeColor=#FFFFFF;fontFamily=Manrope;fontSource=https%3A%2F%2Ffonts.googleapis.com%2Fcss%3Ffamily%3DManrope;" edge="1" parent="F2D_igmeonf07bmUXP3F-31">
          <mxGeometry width="50" height="50" as="geometry">
            <mxPoint x="18" y="3" as="sourcePoint" />
            <mxPoint x="27" y="12" as="targetPoint" />
            <Array as="points">
              <mxPoint x="18" y="12" />
            </Array>
          </mxGeometry>
        </mxCell>
        <mxCell id="F2D_igmeonf07bmUXP3F-36" value="" style="endArrow=open;html=1;edgeStyle=orthogonalEdgeStyle;rounded=0;endFill=0;startSize=6;endSize=2;strokeColor=#FFFFFF;fontFamily=Manrope;fontSource=https%3A%2F%2Ffonts.googleapis.com%2Fcss%3Ffamily%3DManrope;" edge="1" parent="F2D_igmeonf07bmUXP3F-31">
          <mxGeometry width="50" height="50" as="geometry">
            <mxPoint x="27" y="19" as="sourcePoint" />
            <mxPoint x="18" y="27" as="targetPoint" />
            <Array as="points">
              <mxPoint x="18" y="19" />
            </Array>
          </mxGeometry>
        </mxCell>
        <mxCell id="F2D_igmeonf07bmUXP3F-39" value="&lt;font style=&quot;font-size: 8px;&quot;&gt;100G&lt;/font&gt;" style="text;html=1;align=center;verticalAlign=middle;resizable=0;points=[];autosize=1;fontSize=10;fontFamily=Google Sans;fontStyle=0;fontColor=#FFFFFF;connectable=0;rotation=-90;fontSource=https%3A%2F%2Ffonts.googleapis.com%2Fcss%3Ffamily%3DGoogle%2BSans;" vertex="1" parent="F2D_igmeonf07bmUXP3F-1">
          <mxGeometry x="302" y="360" width="38" height="24" as="geometry" />
        </mxCell>
        <mxCell id="F2D_igmeonf07bmUXP3F-40" value="&lt;font style=&quot;font-size: 8px;&quot;&gt;100G&lt;/font&gt;" style="text;html=1;align=center;verticalAlign=middle;resizable=0;points=[];autosize=1;fontSize=10;fontFamily=Google Sans;fontStyle=0;fontColor=#FFFFFF;connectable=0;rotation=-90;fontSource=https%3A%2F%2Ffonts.googleapis.com%2Fcss%3Ffamily%3DGoogle%2BSans;" vertex="1" parent="F2D_igmeonf07bmUXP3F-1">
          <mxGeometry x="413" y="360" width="38" height="24" as="geometry" />
        </mxCell>
        <mxCell id="gmdZPn1N5_ou3lEkWw2l-0" value="" style="shape=cross;whiteSpace=wrap;html=1;strokeColor=none;rotation=90;fillColor=#FF0000;" vertex="1" parent="F2D_igmeonf07bmUXP3F-1">
          <mxGeometry x="348" y="456" width="12" height="12" as="geometry" />
        </mxCell>
      </root>
    </mxGraphModel>
  </diagram>
  <diagram name="[2] leaf-core fail" id="FHysrUt6rJiF0cJQMqPz">
    <mxGraphModel dx="988" dy="535" grid="0" gridSize="2" guides="1" tooltips="1" connect="1" arrows="1" fold="1" page="1" pageScale="1" pageWidth="827" pageHeight="1169" background="#4D5766" math="0" shadow="0">
      <root>
        <mxCell id="TM_-9l40b5GaCKXPWp5L-0" />
        <mxCell id="TM_-9l40b5GaCKXPWp5L-1" parent="TM_-9l40b5GaCKXPWp5L-0" />
        <mxCell id="TM_-9l40b5GaCKXPWp5L-2" style="rounded=0;orthogonalLoop=1;jettySize=auto;html=1;exitX=0.5;exitY=0;exitDx=0;exitDy=0;startSize=6;endArrow=none;endFill=0;endSize=2;fontFamily=Manrope;fontSize=8;strokeColor=#98A2AE;fontSource=https%3A%2F%2Ffonts.googleapis.com%2Fcss%3Ffamily%3DManrope;entryX=0.5;entryY=1;entryDx=0;entryDy=0;" edge="1" parent="TM_-9l40b5GaCKXPWp5L-1" source="TM_-9l40b5GaCKXPWp5L-13" target="TM_-9l40b5GaCKXPWp5L-25">
          <mxGeometry relative="1" as="geometry">
            <mxPoint x="327" y="326" as="sourcePoint" />
            <mxPoint x="383" y="302" as="targetPoint" />
          </mxGeometry>
        </mxCell>
        <mxCell id="TM_-9l40b5GaCKXPWp5L-3" style="rounded=0;orthogonalLoop=1;jettySize=auto;html=1;exitX=0.5;exitY=0;exitDx=0;exitDy=0;entryX=0.25;entryY=1;entryDx=0;entryDy=0;startSize=6;endArrow=none;endFill=0;endSize=2;fontFamily=Manrope;fontSize=8;strokeColor=#98A2AE;fontSource=https%3A%2F%2Ffonts.googleapis.com%2Fcss%3Ffamily%3DManrope;" edge="1" parent="TM_-9l40b5GaCKXPWp5L-1" source="TM_-9l40b5GaCKXPWp5L-13" target="TM_-9l40b5GaCKXPWp5L-31">
          <mxGeometry relative="1" as="geometry">
            <mxPoint x="327" y="326" as="sourcePoint" />
            <mxPoint x="485" y="300" as="targetPoint" />
          </mxGeometry>
        </mxCell>
        <mxCell id="TM_-9l40b5GaCKXPWp5L-4" style="rounded=0;orthogonalLoop=1;jettySize=auto;html=1;exitX=0.5;exitY=0;exitDx=0;exitDy=0;entryX=0.75;entryY=1;entryDx=0;entryDy=0;startSize=6;endArrow=none;endFill=0;endSize=2;fontFamily=Manrope;fontSize=8;strokeColor=#98A2AE;fontSource=https%3A%2F%2Ffonts.googleapis.com%2Fcss%3Ffamily%3DManrope;" edge="1" parent="TM_-9l40b5GaCKXPWp5L-1" source="TM_-9l40b5GaCKXPWp5L-7" target="TM_-9l40b5GaCKXPWp5L-25">
          <mxGeometry relative="1" as="geometry">
            <mxPoint x="329" y="328" as="sourcePoint" />
            <mxPoint x="383" y="302" as="targetPoint" />
          </mxGeometry>
        </mxCell>
        <mxCell id="TM_-9l40b5GaCKXPWp5L-5" style="rounded=0;orthogonalLoop=1;jettySize=auto;html=1;exitX=0.5;exitY=1;exitDx=0;exitDy=0;entryX=0.5;entryY=0;entryDx=0;entryDy=0;startSize=6;endArrow=none;endFill=0;endSize=2;fontFamily=Manrope;fontSize=8;strokeColor=#98A2AE;fontSource=https%3A%2F%2Ffonts.googleapis.com%2Fcss%3Ffamily%3DManrope;" edge="1" parent="TM_-9l40b5GaCKXPWp5L-1" source="TM_-9l40b5GaCKXPWp5L-31" target="TM_-9l40b5GaCKXPWp5L-7">
          <mxGeometry relative="1" as="geometry">
            <mxPoint x="485" y="300" as="sourcePoint" />
            <mxPoint x="351" y="304" as="targetPoint" />
          </mxGeometry>
        </mxCell>
        <mxCell id="TM_-9l40b5GaCKXPWp5L-6" value="" style="group;fontFamily=Manrope;fontSource=https%3A%2F%2Ffonts.googleapis.com%2Fcss%3Ffamily%3DManrope;" vertex="1" connectable="0" parent="TM_-9l40b5GaCKXPWp5L-1">
          <mxGeometry x="423" y="403" width="30" height="30" as="geometry" />
        </mxCell>
        <mxCell id="TM_-9l40b5GaCKXPWp5L-7" value="" style="whiteSpace=wrap;html=1;aspect=fixed;fillColor=#001135;strokeColor=none;connectable=1;allowArrows=1;fontFamily=Manrope;fontSource=https%3A%2F%2Ffonts.googleapis.com%2Fcss%3Ffamily%3DManrope;" vertex="1" parent="TM_-9l40b5GaCKXPWp5L-6">
          <mxGeometry width="30" height="30" as="geometry" />
        </mxCell>
        <mxCell id="TM_-9l40b5GaCKXPWp5L-8" value="" style="endArrow=open;html=1;edgeStyle=orthogonalEdgeStyle;rounded=0;endFill=0;startSize=6;endSize=2;strokeColor=#FFFFFF;fontFamily=Manrope;fontSource=https%3A%2F%2Ffonts.googleapis.com%2Fcss%3Ffamily%3DManrope;" edge="1" parent="TM_-9l40b5GaCKXPWp5L-6">
          <mxGeometry width="50" height="50" relative="1" as="geometry">
            <mxPoint x="3" y="12" as="sourcePoint" />
            <mxPoint x="11" y="3" as="targetPoint" />
            <Array as="points">
              <mxPoint x="11" y="12" />
            </Array>
          </mxGeometry>
        </mxCell>
        <mxCell id="TM_-9l40b5GaCKXPWp5L-9" value="" style="endArrow=open;html=1;edgeStyle=orthogonalEdgeStyle;rounded=0;endFill=0;startSize=6;endSize=2;strokeColor=#FFFFFF;fontFamily=Manrope;fontSource=https%3A%2F%2Ffonts.googleapis.com%2Fcss%3Ffamily%3DManrope;" edge="1" parent="TM_-9l40b5GaCKXPWp5L-6">
          <mxGeometry width="50" height="50" relative="1" as="geometry">
            <mxPoint x="11" y="27" as="sourcePoint" />
            <mxPoint x="3" y="19" as="targetPoint" />
            <Array as="points">
              <mxPoint x="11" y="19" />
            </Array>
          </mxGeometry>
        </mxCell>
        <mxCell id="TM_-9l40b5GaCKXPWp5L-10" value="" style="endArrow=open;html=1;edgeStyle=orthogonalEdgeStyle;rounded=0;endFill=0;startSize=6;endSize=2;strokeColor=#FFFFFF;fontFamily=Manrope;fontSource=https%3A%2F%2Ffonts.googleapis.com%2Fcss%3Ffamily%3DManrope;" edge="1" parent="TM_-9l40b5GaCKXPWp5L-6">
          <mxGeometry width="50" height="50" relative="1" as="geometry">
            <mxPoint x="18" y="3" as="sourcePoint" />
            <mxPoint x="27" y="12" as="targetPoint" />
            <Array as="points">
              <mxPoint x="18" y="12" />
            </Array>
          </mxGeometry>
        </mxCell>
        <mxCell id="TM_-9l40b5GaCKXPWp5L-11" value="" style="endArrow=open;html=1;edgeStyle=orthogonalEdgeStyle;rounded=0;endFill=0;startSize=6;endSize=2;strokeColor=#FFFFFF;fontFamily=Manrope;fontSource=https%3A%2F%2Ffonts.googleapis.com%2Fcss%3Ffamily%3DManrope;" edge="1" parent="TM_-9l40b5GaCKXPWp5L-6">
          <mxGeometry width="50" height="50" relative="1" as="geometry">
            <mxPoint x="27" y="19" as="sourcePoint" />
            <mxPoint x="18" y="27" as="targetPoint" />
            <Array as="points">
              <mxPoint x="18" y="19" />
            </Array>
          </mxGeometry>
        </mxCell>
        <mxCell id="TM_-9l40b5GaCKXPWp5L-12" value="" style="group" vertex="1" connectable="0" parent="TM_-9l40b5GaCKXPWp5L-1">
          <mxGeometry x="312" y="403" width="141" height="107" as="geometry" />
        </mxCell>
        <mxCell id="TM_-9l40b5GaCKXPWp5L-13" value="" style="whiteSpace=wrap;html=1;aspect=fixed;fillColor=#001135;strokeColor=none;connectable=1;allowArrows=1;fontFamily=Manrope;fontSource=https%3A%2F%2Ffonts.googleapis.com%2Fcss%3Ffamily%3DManrope;" vertex="1" parent="TM_-9l40b5GaCKXPWp5L-12">
          <mxGeometry width="30" height="30" as="geometry" />
        </mxCell>
        <mxCell id="TM_-9l40b5GaCKXPWp5L-14" value="" style="endArrow=open;html=1;edgeStyle=orthogonalEdgeStyle;rounded=0;endFill=0;startSize=6;endSize=2;strokeColor=#FFFFFF;fontFamily=Manrope;fontSource=https%3A%2F%2Ffonts.googleapis.com%2Fcss%3Ffamily%3DManrope;" edge="1" parent="TM_-9l40b5GaCKXPWp5L-12">
          <mxGeometry width="50" height="50" as="geometry">
            <mxPoint x="3" y="12" as="sourcePoint" />
            <mxPoint x="11" y="3" as="targetPoint" />
            <Array as="points">
              <mxPoint x="11" y="12" />
            </Array>
          </mxGeometry>
        </mxCell>
        <mxCell id="TM_-9l40b5GaCKXPWp5L-15" value="" style="endArrow=open;html=1;edgeStyle=orthogonalEdgeStyle;rounded=0;endFill=0;startSize=6;endSize=2;strokeColor=#FFFFFF;fontFamily=Manrope;fontSource=https%3A%2F%2Ffonts.googleapis.com%2Fcss%3Ffamily%3DManrope;" edge="1" parent="TM_-9l40b5GaCKXPWp5L-12">
          <mxGeometry width="50" height="50" as="geometry">
            <mxPoint x="11" y="27" as="sourcePoint" />
            <mxPoint x="3" y="19" as="targetPoint" />
            <Array as="points">
              <mxPoint x="11" y="19" />
            </Array>
          </mxGeometry>
        </mxCell>
        <mxCell id="TM_-9l40b5GaCKXPWp5L-16" value="" style="endArrow=open;html=1;edgeStyle=orthogonalEdgeStyle;rounded=0;endFill=0;startSize=6;endSize=2;strokeColor=#FFFFFF;fontFamily=Manrope;fontSource=https%3A%2F%2Ffonts.googleapis.com%2Fcss%3Ffamily%3DManrope;" edge="1" parent="TM_-9l40b5GaCKXPWp5L-12">
          <mxGeometry width="50" height="50" as="geometry">
            <mxPoint x="18" y="3" as="sourcePoint" />
            <mxPoint x="27" y="12" as="targetPoint" />
            <Array as="points">
              <mxPoint x="18" y="12" />
            </Array>
          </mxGeometry>
        </mxCell>
        <mxCell id="TM_-9l40b5GaCKXPWp5L-17" value="" style="endArrow=open;html=1;edgeStyle=orthogonalEdgeStyle;rounded=0;endFill=0;startSize=6;endSize=2;strokeColor=#FFFFFF;fontFamily=Manrope;fontSource=https%3A%2F%2Ffonts.googleapis.com%2Fcss%3Ffamily%3DManrope;" edge="1" parent="TM_-9l40b5GaCKXPWp5L-12">
          <mxGeometry width="50" height="50" as="geometry">
            <mxPoint x="27" y="19" as="sourcePoint" />
            <mxPoint x="18" y="27" as="targetPoint" />
            <Array as="points">
              <mxPoint x="18" y="19" />
            </Array>
          </mxGeometry>
        </mxCell>
        <mxCell id="TM_-9l40b5GaCKXPWp5L-18" value="" style="ellipse;whiteSpace=wrap;html=1;fillColor=none;strokeColor=#98a2ae;" vertex="1" parent="TM_-9l40b5GaCKXPWp5L-12">
          <mxGeometry x="59" y="79" width="32" height="4" as="geometry" />
        </mxCell>
        <mxCell id="TM_-9l40b5GaCKXPWp5L-19" value="&lt;font style=&quot;font-size: 8px;&quot;&gt;10/25G&lt;/font&gt;" style="text;html=1;align=center;verticalAlign=middle;resizable=0;points=[];autosize=1;fontSize=10;fontFamily=Google Sans;fontStyle=0;fontColor=#FFFFFF;connectable=0;rotation=45;fontSource=https%3A%2F%2Ffonts.googleapis.com%2Fcss%3Ffamily%3DGoogle%2BSans;" vertex="1" parent="TM_-9l40b5GaCKXPWp5L-12">
          <mxGeometry x="23" y="41.5" width="44" height="24" as="geometry" />
        </mxCell>
        <mxCell id="TM_-9l40b5GaCKXPWp5L-20" value="&lt;font style=&quot;font-size: 8px;&quot;&gt;10/25G&lt;/font&gt;" style="text;html=1;align=center;verticalAlign=middle;resizable=0;points=[];autosize=1;fontSize=10;fontFamily=Google Sans;fontStyle=0;fontColor=#FFFFFF;connectable=0;rotation=-52;fontSource=https%3A%2F%2Ffonts.googleapis.com%2Fcss%3Ffamily%3DGoogle%2BSans;" vertex="1" parent="TM_-9l40b5GaCKXPWp5L-12">
          <mxGeometry x="74" y="47" width="44" height="24" as="geometry" />
        </mxCell>
        <mxCell id="TM_-9l40b5GaCKXPWp5L-21" value="" style="shape=image;editableCssRules=\.st[02];verticalLabelPosition=bottom;labelBackgroundColor=#ffffff;verticalAlign=top;aspect=fixed;imageAspect=0;image=data:image/svg+xml,PHN2ZyB4bWxucz0iaHR0cDovL3d3dy53My5vcmcvMjAwMC9zdmciIHhtbG5zOnhsaW5rPSJodHRwOi8vd3d3LnczLm9yZy8xOTk5L3hsaW5rIiB2ZXJzaW9uPSIxLjEiIGlkPSJMYXllcl8xIiB4PSIwcHgiIHk9IjBweCIgd2lkdGg9IjE0MS42OTk5OTY5NDgyNDIyIiBoZWlnaHQ9IjE0MS42OTk5OTY5NDgyNDIyIiB2aWV3Qm94PSIwIDAgMTQxLjY5OTk5Njk0ODI0MjIgMTQxLjY5OTk5Njk0ODI0MjIiIHN0eWxlPSJlbmFibGUtYmFja2dyb3VuZDpuZXcgMCAwIDE0MS43IDE0MS43OyIgeG1sOnNwYWNlPSJwcmVzZXJ2ZSI+JiN4YTs8c3R5bGUgdHlwZT0idGV4dC9jc3MiPiYjeGE7CS5zdDB7ZmlsbDojMDAxMTM1O30mI3hhOwkuc3Qxe2ZpbGw6I0ZGRkZGRjt9JiN4YTsJLnN0MntmaWxsOm5vbmU7c3Ryb2tlOiNGRkZGRkY7c3Ryb2tlLXdpZHRoOjQ7c3Ryb2tlLW1pdGVybGltaXQ6MTA7fSYjeGE7CS5zdDN7ZmlsbDpub25lO3N0cm9rZTojRkZGRkZGO3N0cm9rZS13aWR0aDo0O3N0cm9rZS1saW5lam9pbjpyb3VuZDt9JiN4YTsJLnN0NHtmaWxsOiNGRkZGRkY7c3Ryb2tlOiNGRkZGRkY7c3Ryb2tlLW1pdGVybGltaXQ6MTA7fSYjeGE7CS5zdDV7ZmlsbDpub25lO30mI3hhOwkuc3Q2e2ZpbGw6I0ZGRkZGRjtzdHJva2U6I0ZGRkZGRjtzdHJva2Utd2lkdGg6MS42O3N0cm9rZS1taXRlcmxpbWl0OjEwO30mI3hhOwkuc3Q3e2ZpbGw6bm9uZTtzdHJva2U6I0ZGRkZGRjtzdHJva2Utd2lkdGg6NDt9JiN4YTsJLnN0OHtmaWxsOiMwMDExMzU7c3Ryb2tlOiNGRkZGRkY7c3Ryb2tlLXdpZHRoOjQ7c3Ryb2tlLW1pdGVybGltaXQ6MTA7fSYjeGE7CS5zdDl7ZmlsbDpub25lO3N0cm9rZTojRkZGRkZGO3N0cm9rZS13aWR0aDo0LjAwMDI7c3Ryb2tlLW1pdGVybGltaXQ6MTA7fSYjeGE7CS5zdDEwe2ZpbGw6bm9uZTtzdHJva2U6I0ZGRkZGRjtzdHJva2Utd2lkdGg6MC4zO3N0cm9rZS1taXRlcmxpbWl0OjEwO30mI3hhOwkuc3QxMXtmaWxsOm5vbmU7c3Ryb2tlOiNGRkZGRkY7c3Ryb2tlLXdpZHRoOjMuOTk5NTtzdHJva2UtbWl0ZXJsaW1pdDoxMDt9JiN4YTsJLnN0MTJ7ZmlsbDpub25lO3N0cm9rZTojRkZGRkZGO3N0cm9rZS13aWR0aDozLjk5OTY7c3Ryb2tlLW1pdGVybGltaXQ6MTA7fSYjeGE7CS5zdDEze2ZpbGw6bm9uZTtzdHJva2U6I0ZGRkZGRjtzdHJva2Utd2lkdGg6MztzdHJva2UtbWl0ZXJsaW1pdDoxMDt9JiN4YTsJLnN0MTR7ZmlsbDpub25lO3N0cm9rZTojRkZGRkZGO3N0cm9rZS13aWR0aDo0O3N0cm9rZS1saW5lam9pbjpyb3VuZDtzdHJva2UtbWl0ZXJsaW1pdDoxMDt9JiN4YTsJLnN0MTV7ZmlsbDpub25lO3N0cm9rZTojRkZGRkZGO3N0cm9rZS13aWR0aDo0O3N0cm9rZS1saW5lY2FwOnJvdW5kO3N0cm9rZS1saW5lam9pbjpyb3VuZDtzdHJva2UtbWl0ZXJsaW1pdDoxMDt9JiN4YTsJLnN0MTZ7ZmlsbDojMDAxODQ1O3N0cm9rZTojRkZGRkZGO3N0cm9rZS13aWR0aDo0LjM1NjY7c3Ryb2tlLWxpbmVjYXA6cm91bmQ7c3Ryb2tlLWxpbmVqb2luOnJvdW5kO3N0cm9rZS1taXRlcmxpbWl0OjEwO30mI3hhOwkuc3QxN3tmaWxsOm5vbmU7c3Ryb2tlOiNGRkZGRkY7c3Ryb2tlLXdpZHRoOjQ7c3Ryb2tlLWxpbmVjYXA6cm91bmQ7fSYjeGE7CS5zdDE4e2ZpbGw6IzAwMTEzNTtzdHJva2U6I0ZGRkZGRjtzdHJva2Utd2lkdGg6NDtzdHJva2UtbGluZWNhcDpyb3VuZDtzdHJva2UtbGluZWpvaW46cm91bmQ7fSYjeGE7CS5zdDE5e2ZpbGw6I0ZGRkZGRjtzdHJva2U6I0ZGRkZGRjtzdHJva2Utd2lkdGg6MC41O30mI3hhOwkuc3QyMHtmaWxsOm5vbmU7c3Ryb2tlOiNGRkZGRkY7c3Ryb2tlLXdpZHRoOjQ7c3Ryb2tlLWxpbmVjYXA6cm91bmQ7c3Ryb2tlLW1pdGVybGltaXQ6MTA7fSYjeGE7CS5zdDIxe2ZpbGw6I0ZGRkZGRjtzdHJva2U6I0ZGRkZGRjtzdHJva2Utd2lkdGg6NDtzdHJva2UtbWl0ZXJsaW1pdDoxMDt9JiN4YTsJLnN0MjJ7ZmlsbDojMDAxMTM1O3N0cm9rZTojRkZGRkZGO3N0cm9rZS13aWR0aDo0O3N0cm9rZS1saW5lY2FwOnJvdW5kO3N0cm9rZS1taXRlcmxpbWl0OjEwO30mI3hhOwkuc3QyM3tmaWxsOm5vbmU7c3Ryb2tlOiNGRkZGRkY7c3Ryb2tlLXdpZHRoOjQ7c3Ryb2tlLWxpbmVjYXA6cm91bmQ7c3Ryb2tlLWxpbmVqb2luOnJvdW5kO30mI3hhOwkuc3QyNHtmaWxsOm5vbmU7c3Ryb2tlOiNGRkZGRkY7c3Ryb2tlLXdpZHRoOjQuMDAwMTt9JiN4YTsJLnN0MjV7ZmlsbDpub25lO3N0cm9rZTojRkZGRkZGO3N0cm9rZS13aWR0aDo0LjAwMDE7c3Ryb2tlLWxpbmVjYXA6cm91bmQ7fSYjeGE7CS5zdDI2e2ZpbGw6IzAwMTEzNTtzdHJva2U6I0ZGRkZGRjtzdHJva2Utd2lkdGg6NDt9JiN4YTsJLnN0Mjd7ZmlsbDpub25lO3N0cm9rZTojRkZGRkZGO3N0cm9rZS13aWR0aDo0O3N0cm9rZS1taXRlcmxpbWl0OjEwO3N0cm9rZS1kYXNoYXJyYXk6Ny45NjcsMy45ODM1O30mI3hhOwkuc3QyOHtmaWxsOm5vbmU7c3Ryb2tlOiNGRkZGRkY7c3Ryb2tlLXdpZHRoOjQ7c3Ryb2tlLW1pdGVybGltaXQ6MTA7c3Ryb2tlLWRhc2hhcnJheTo2LjU2MTQsMi4xODcxO30mI3hhOwkuc3QyOXtmaWxsOm5vbmU7c3Ryb2tlOiNGRkZGRkY7c3Ryb2tlLXdpZHRoOjQ7c3Ryb2tlLW1pdGVybGltaXQ6MTA7c3Ryb2tlLWRhc2hhcnJheToxNC4zOTA2LDQuNzk2OTt9JiN4YTsJLnN0MzB7ZmlsbDpub25lO3N0cm9rZTojRkZGRkZGO3N0cm9rZS13aWR0aDo0O3N0cm9rZS1taXRlcmxpbWl0OjEwO3N0cm9rZS1kYXNoYXJyYXk6OC44ODM5LDIuOTYxMzt9JiN4YTsJLnN0MzF7ZmlsbDpub25lO3N0cm9rZTojRkZGRkZGO3N0cm9rZS13aWR0aDo0O3N0cm9rZS1taXRlcmxpbWl0OjEwO3N0cm9rZS1kYXNoYXJyYXk6NC4zNzQzO30mI3hhOwkuc3QzMntmaWxsOm5vbmU7c3Ryb2tlOiNGRkZGRkY7c3Ryb2tlLXdpZHRoOjQ7c3Ryb2tlLW1pdGVybGltaXQ6MTA7c3Ryb2tlLWRhc2hhcnJheTo4LjIyNTgsMi43NDE5O30mI3hhOwkuc3QzM3tmaWxsOiMwMDExMzU7c3Ryb2tlOiNGRkZGRkY7c3Ryb2tlLXdpZHRoOjQuMDI1NTtzdHJva2UtbWl0ZXJsaW1pdDoxMDt9JiN4YTs8L3N0eWxlPiYjeGE7PHJlY3QgY2xhc3M9InN0MCIgd2lkdGg9IjE0MS43IiBoZWlnaHQ9IjE0MS43Ii8+JiN4YTs8cGF0aCBjbGFzcz0ic3QxIiBkPSJNNTcuNiwxMTYuMWgyNi41VjI1LjZINTcuNlYxMTYuMXogTTg4LjEsMTIwLjFINTMuNlYyMS42aDM0LjVWMTIwLjF6Ii8+JiN4YTs8cmVjdCB4PSI1NS42IiB5PSIzMy40IiBjbGFzcz0ic3QxIiB3aWR0aD0iMzAuNSIgaGVpZ2h0PSI0Ii8+JiN4YTs8cmVjdCB4PSI1NS42IiB5PSI4MC43IiBjbGFzcz0ic3QxIiB3aWR0aD0iMzAuNSIgaGVpZ2h0PSI0Ii8+JiN4YTs8cGF0aCBjbGFzcz0ic3QxIiBkPSJNNjQuNCw3MC45YzAtMS42LDEuMy0yLjgsMi44LTIuOGMxLjYsMCwyLjgsMS4zLDIuOCwyLjhjMCwxLjYtMS4zLDIuOC0yLjgsMi44QzY1LjYsNzMuNyw2NC40LDcyLjQsNjQuNCw3MC45Ii8+JiN4YTs8L3N2Zz4=;" vertex="1" parent="TM_-9l40b5GaCKXPWp5L-1">
          <mxGeometry x="374" y="491.00000000000006" width="26" height="26" as="geometry" />
        </mxCell>
        <mxCell id="TM_-9l40b5GaCKXPWp5L-22" style="rounded=0;orthogonalLoop=1;jettySize=auto;html=1;exitX=0.5;exitY=1;exitDx=0;exitDy=0;startSize=6;endArrow=none;endFill=0;endSize=2;fontFamily=Manrope;fontSize=8;strokeColor=#98A2AE;fontSource=https%3A%2F%2Ffonts.googleapis.com%2Fcss%3Ffamily%3DManrope;entryX=0.25;entryY=0;entryDx=0;entryDy=0;" edge="1" parent="TM_-9l40b5GaCKXPWp5L-1" source="TM_-9l40b5GaCKXPWp5L-13" target="TM_-9l40b5GaCKXPWp5L-21">
          <mxGeometry relative="1" as="geometry">
            <mxPoint x="329" y="405" as="sourcePoint" />
            <mxPoint x="385" y="304" as="targetPoint" />
          </mxGeometry>
        </mxCell>
        <mxCell id="TM_-9l40b5GaCKXPWp5L-23" style="rounded=0;orthogonalLoop=1;jettySize=auto;html=1;exitX=0.5;exitY=1;exitDx=0;exitDy=0;startSize=6;endArrow=none;endFill=0;endSize=2;fontFamily=Manrope;fontSize=8;strokeColor=#98A2AE;fontSource=https%3A%2F%2Ffonts.googleapis.com%2Fcss%3Ffamily%3DManrope;entryX=0.75;entryY=0;entryDx=0;entryDy=0;" edge="1" parent="TM_-9l40b5GaCKXPWp5L-1" source="TM_-9l40b5GaCKXPWp5L-7" target="TM_-9l40b5GaCKXPWp5L-21">
          <mxGeometry relative="1" as="geometry">
            <mxPoint x="329" y="435" as="sourcePoint" />
            <mxPoint x="383" y="493" as="targetPoint" />
          </mxGeometry>
        </mxCell>
        <mxCell id="TM_-9l40b5GaCKXPWp5L-24" value="" style="group" vertex="1" connectable="0" parent="TM_-9l40b5GaCKXPWp5L-1">
          <mxGeometry x="312" y="294" width="30" height="30" as="geometry" />
        </mxCell>
        <mxCell id="TM_-9l40b5GaCKXPWp5L-25" value="" style="whiteSpace=wrap;html=1;aspect=fixed;fillColor=#00C9FF;strokeColor=none;connectable=1;allowArrows=1;fontFamily=Manrope;fontSource=https%3A%2F%2Ffonts.googleapis.com%2Fcss%3Ffamily%3DManrope;" vertex="1" parent="TM_-9l40b5GaCKXPWp5L-24">
          <mxGeometry width="30" height="30" as="geometry" />
        </mxCell>
        <mxCell id="TM_-9l40b5GaCKXPWp5L-26" value="" style="endArrow=open;html=1;edgeStyle=orthogonalEdgeStyle;rounded=0;endFill=0;startSize=6;endSize=2;strokeColor=#FFFFFF;fontFamily=Manrope;fontSource=https%3A%2F%2Ffonts.googleapis.com%2Fcss%3Ffamily%3DManrope;" edge="1" parent="TM_-9l40b5GaCKXPWp5L-24">
          <mxGeometry width="50" height="50" as="geometry">
            <mxPoint x="3" y="12" as="sourcePoint" />
            <mxPoint x="11" y="3" as="targetPoint" />
            <Array as="points">
              <mxPoint x="11" y="12" />
            </Array>
          </mxGeometry>
        </mxCell>
        <mxCell id="TM_-9l40b5GaCKXPWp5L-27" value="" style="endArrow=open;html=1;edgeStyle=orthogonalEdgeStyle;rounded=0;endFill=0;startSize=6;endSize=2;strokeColor=#FFFFFF;fontFamily=Manrope;fontSource=https%3A%2F%2Ffonts.googleapis.com%2Fcss%3Ffamily%3DManrope;" edge="1" parent="TM_-9l40b5GaCKXPWp5L-24">
          <mxGeometry width="50" height="50" as="geometry">
            <mxPoint x="11" y="27" as="sourcePoint" />
            <mxPoint x="3" y="19" as="targetPoint" />
            <Array as="points">
              <mxPoint x="11" y="19" />
            </Array>
          </mxGeometry>
        </mxCell>
        <mxCell id="TM_-9l40b5GaCKXPWp5L-28" value="" style="endArrow=open;html=1;edgeStyle=orthogonalEdgeStyle;rounded=0;endFill=0;startSize=6;endSize=2;strokeColor=#FFFFFF;fontFamily=Manrope;fontSource=https%3A%2F%2Ffonts.googleapis.com%2Fcss%3Ffamily%3DManrope;" edge="1" parent="TM_-9l40b5GaCKXPWp5L-24">
          <mxGeometry width="50" height="50" as="geometry">
            <mxPoint x="18" y="3" as="sourcePoint" />
            <mxPoint x="27" y="12" as="targetPoint" />
            <Array as="points">
              <mxPoint x="18" y="12" />
            </Array>
          </mxGeometry>
        </mxCell>
        <mxCell id="TM_-9l40b5GaCKXPWp5L-29" value="" style="endArrow=open;html=1;edgeStyle=orthogonalEdgeStyle;rounded=0;endFill=0;startSize=6;endSize=2;strokeColor=#FFFFFF;fontFamily=Manrope;fontSource=https%3A%2F%2Ffonts.googleapis.com%2Fcss%3Ffamily%3DManrope;" edge="1" parent="TM_-9l40b5GaCKXPWp5L-24">
          <mxGeometry width="50" height="50" as="geometry">
            <mxPoint x="27" y="19" as="sourcePoint" />
            <mxPoint x="18" y="27" as="targetPoint" />
            <Array as="points">
              <mxPoint x="18" y="19" />
            </Array>
          </mxGeometry>
        </mxCell>
        <mxCell id="TM_-9l40b5GaCKXPWp5L-30" value="" style="group" vertex="1" connectable="0" parent="TM_-9l40b5GaCKXPWp5L-1">
          <mxGeometry x="423" y="295" width="30" height="30" as="geometry" />
        </mxCell>
        <mxCell id="TM_-9l40b5GaCKXPWp5L-31" value="" style="whiteSpace=wrap;html=1;aspect=fixed;fillColor=#00C9FF;strokeColor=none;connectable=1;allowArrows=1;fontFamily=Manrope;fontSource=https%3A%2F%2Ffonts.googleapis.com%2Fcss%3Ffamily%3DManrope;" vertex="1" parent="TM_-9l40b5GaCKXPWp5L-30">
          <mxGeometry width="30" height="30" as="geometry" />
        </mxCell>
        <mxCell id="TM_-9l40b5GaCKXPWp5L-32" value="" style="endArrow=open;html=1;edgeStyle=orthogonalEdgeStyle;rounded=0;endFill=0;startSize=6;endSize=2;strokeColor=#FFFFFF;fontFamily=Manrope;fontSource=https%3A%2F%2Ffonts.googleapis.com%2Fcss%3Ffamily%3DManrope;" edge="1" parent="TM_-9l40b5GaCKXPWp5L-30">
          <mxGeometry width="50" height="50" as="geometry">
            <mxPoint x="3" y="12" as="sourcePoint" />
            <mxPoint x="11" y="3" as="targetPoint" />
            <Array as="points">
              <mxPoint x="11" y="12" />
            </Array>
          </mxGeometry>
        </mxCell>
        <mxCell id="TM_-9l40b5GaCKXPWp5L-33" value="" style="endArrow=open;html=1;edgeStyle=orthogonalEdgeStyle;rounded=0;endFill=0;startSize=6;endSize=2;strokeColor=#FFFFFF;fontFamily=Manrope;fontSource=https%3A%2F%2Ffonts.googleapis.com%2Fcss%3Ffamily%3DManrope;" edge="1" parent="TM_-9l40b5GaCKXPWp5L-30">
          <mxGeometry width="50" height="50" as="geometry">
            <mxPoint x="11" y="27" as="sourcePoint" />
            <mxPoint x="3" y="19" as="targetPoint" />
            <Array as="points">
              <mxPoint x="11" y="19" />
            </Array>
          </mxGeometry>
        </mxCell>
        <mxCell id="TM_-9l40b5GaCKXPWp5L-34" value="" style="endArrow=open;html=1;edgeStyle=orthogonalEdgeStyle;rounded=0;endFill=0;startSize=6;endSize=2;strokeColor=#FFFFFF;fontFamily=Manrope;fontSource=https%3A%2F%2Ffonts.googleapis.com%2Fcss%3Ffamily%3DManrope;" edge="1" parent="TM_-9l40b5GaCKXPWp5L-30">
          <mxGeometry width="50" height="50" as="geometry">
            <mxPoint x="18" y="3" as="sourcePoint" />
            <mxPoint x="27" y="12" as="targetPoint" />
            <Array as="points">
              <mxPoint x="18" y="12" />
            </Array>
          </mxGeometry>
        </mxCell>
        <mxCell id="TM_-9l40b5GaCKXPWp5L-35" value="" style="endArrow=open;html=1;edgeStyle=orthogonalEdgeStyle;rounded=0;endFill=0;startSize=6;endSize=2;strokeColor=#FFFFFF;fontFamily=Manrope;fontSource=https%3A%2F%2Ffonts.googleapis.com%2Fcss%3Ffamily%3DManrope;" edge="1" parent="TM_-9l40b5GaCKXPWp5L-30">
          <mxGeometry width="50" height="50" as="geometry">
            <mxPoint x="27" y="19" as="sourcePoint" />
            <mxPoint x="18" y="27" as="targetPoint" />
            <Array as="points">
              <mxPoint x="18" y="19" />
            </Array>
          </mxGeometry>
        </mxCell>
        <mxCell id="TM_-9l40b5GaCKXPWp5L-36" value="&lt;font style=&quot;font-size: 8px;&quot;&gt;100G&lt;/font&gt;" style="text;html=1;align=center;verticalAlign=middle;resizable=0;points=[];autosize=1;fontSize=10;fontFamily=Google Sans;fontStyle=0;fontColor=#FFFFFF;connectable=0;rotation=-90;fontSource=https%3A%2F%2Ffonts.googleapis.com%2Fcss%3Ffamily%3DGoogle%2BSans;" vertex="1" parent="TM_-9l40b5GaCKXPWp5L-1">
          <mxGeometry x="302" y="360" width="38" height="24" as="geometry" />
        </mxCell>
        <mxCell id="TM_-9l40b5GaCKXPWp5L-37" value="&lt;font style=&quot;font-size: 8px;&quot;&gt;100G&lt;/font&gt;" style="text;html=1;align=center;verticalAlign=middle;resizable=0;points=[];autosize=1;fontSize=10;fontFamily=Google Sans;fontStyle=0;fontColor=#FFFFFF;connectable=0;rotation=-90;fontSource=https%3A%2F%2Ffonts.googleapis.com%2Fcss%3Ffamily%3DGoogle%2BSans;" vertex="1" parent="TM_-9l40b5GaCKXPWp5L-1">
          <mxGeometry x="413" y="360" width="38" height="24" as="geometry" />
        </mxCell>
        <mxCell id="TM_-9l40b5GaCKXPWp5L-38" value="" style="shape=cross;whiteSpace=wrap;html=1;strokeColor=none;rotation=120;fillColor=#FF0000;" vertex="1" parent="TM_-9l40b5GaCKXPWp5L-1">
          <mxGeometry x="321" y="378" width="12" height="12" as="geometry" />
        </mxCell>
        <mxCell id="uRePC1aD5KLE4J2lcU5K-0" value="" style="shape=cross;whiteSpace=wrap;html=1;strokeColor=none;rotation=120;fillColor=#FF0000;" vertex="1" parent="TM_-9l40b5GaCKXPWp5L-1">
          <mxGeometry x="340" y="383" width="12" height="12" as="geometry" />
        </mxCell>
      </root>
    </mxGraphModel>
  </diagram>
  <diagram name="[3] scaling" id="vkNMxtHYNQySLPb8WD_W">
    <mxGraphModel dx="830" dy="449" grid="0" gridSize="2" guides="1" tooltips="1" connect="1" arrows="1" fold="1" page="1" pageScale="1" pageWidth="827" pageHeight="1169" background="#4D5766" math="0" shadow="0">
      <root>
        <mxCell id="6ZO-cmNdnnO5XEdHHBGZ-0" />
        <mxCell id="6ZO-cmNdnnO5XEdHHBGZ-1" parent="6ZO-cmNdnnO5XEdHHBGZ-0" />
        <mxCell id="6ZO-cmNdnnO5XEdHHBGZ-2" style="rounded=0;orthogonalLoop=1;jettySize=auto;html=1;exitX=0.5;exitY=1;exitDx=0;exitDy=0;startSize=6;endArrow=none;endFill=0;endSize=2;fontFamily=Manrope;fontSize=8;strokeColor=#98A2AE;fontSource=https%3A%2F%2Ffonts.googleapis.com%2Fcss%3Ffamily%3DManrope;entryX=0.25;entryY=0;entryDx=0;entryDy=0;" edge="1" parent="6ZO-cmNdnnO5XEdHHBGZ-1" source="6ZO-cmNdnnO5XEdHHBGZ-15" target="6ZO-cmNdnnO5XEdHHBGZ-23">
          <mxGeometry relative="1" as="geometry">
            <mxPoint x="329" y="405" as="sourcePoint" />
            <mxPoint x="385" y="304" as="targetPoint" />
          </mxGeometry>
        </mxCell>
        <mxCell id="6ZO-cmNdnnO5XEdHHBGZ-3" style="rounded=0;orthogonalLoop=1;jettySize=auto;html=1;exitX=0.5;exitY=0;exitDx=0;exitDy=0;startSize=6;endArrow=none;endFill=0;endSize=2;fontFamily=Manrope;fontSize=8;strokeColor=#98A2AE;fontSource=https%3A%2F%2Ffonts.googleapis.com%2Fcss%3Ffamily%3DManrope;entryX=0.5;entryY=1;entryDx=0;entryDy=0;" edge="1" parent="6ZO-cmNdnnO5XEdHHBGZ-1" source="6ZO-cmNdnnO5XEdHHBGZ-15" target="6ZO-cmNdnnO5XEdHHBGZ-26">
          <mxGeometry relative="1" as="geometry">
            <mxPoint x="327" y="326" as="sourcePoint" />
            <mxPoint x="383" y="302" as="targetPoint" />
          </mxGeometry>
        </mxCell>
        <mxCell id="6ZO-cmNdnnO5XEdHHBGZ-4" style="rounded=0;orthogonalLoop=1;jettySize=auto;html=1;exitX=0.5;exitY=0;exitDx=0;exitDy=0;entryX=0.5;entryY=1;entryDx=0;entryDy=0;startSize=6;endArrow=none;endFill=0;endSize=2;fontFamily=Manrope;fontSize=8;strokeColor=#98A2AE;fontSource=https%3A%2F%2Ffonts.googleapis.com%2Fcss%3Ffamily%3DManrope;" edge="1" parent="6ZO-cmNdnnO5XEdHHBGZ-1" source="6ZO-cmNdnnO5XEdHHBGZ-15" target="6ZO-cmNdnnO5XEdHHBGZ-32">
          <mxGeometry relative="1" as="geometry">
            <mxPoint x="327" y="326" as="sourcePoint" />
            <mxPoint x="485" y="300" as="targetPoint" />
          </mxGeometry>
        </mxCell>
        <mxCell id="6ZO-cmNdnnO5XEdHHBGZ-5" style="rounded=0;orthogonalLoop=1;jettySize=auto;html=1;exitX=0.5;exitY=0;exitDx=0;exitDy=0;entryX=0.5;entryY=1;entryDx=0;entryDy=0;startSize=6;endArrow=none;endFill=0;endSize=2;fontFamily=Manrope;fontSize=8;strokeColor=#98A2AE;fontSource=https%3A%2F%2Ffonts.googleapis.com%2Fcss%3Ffamily%3DManrope;" edge="1" parent="6ZO-cmNdnnO5XEdHHBGZ-1" source="6ZO-cmNdnnO5XEdHHBGZ-9" target="6ZO-cmNdnnO5XEdHHBGZ-26">
          <mxGeometry relative="1" as="geometry">
            <mxPoint x="329" y="328" as="sourcePoint" />
            <mxPoint x="383" y="302" as="targetPoint" />
          </mxGeometry>
        </mxCell>
        <mxCell id="6ZO-cmNdnnO5XEdHHBGZ-6" style="rounded=0;orthogonalLoop=1;jettySize=auto;html=1;exitX=0.5;exitY=1;exitDx=0;exitDy=0;entryX=0.5;entryY=0;entryDx=0;entryDy=0;startSize=6;endArrow=none;endFill=0;endSize=2;fontFamily=Manrope;fontSize=8;strokeColor=#98A2AE;fontSource=https%3A%2F%2Ffonts.googleapis.com%2Fcss%3Ffamily%3DManrope;" edge="1" parent="6ZO-cmNdnnO5XEdHHBGZ-1" source="6ZO-cmNdnnO5XEdHHBGZ-32" target="6ZO-cmNdnnO5XEdHHBGZ-9">
          <mxGeometry relative="1" as="geometry">
            <mxPoint x="485" y="300" as="sourcePoint" />
            <mxPoint x="351" y="304" as="targetPoint" />
          </mxGeometry>
        </mxCell>
        <mxCell id="6ZO-cmNdnnO5XEdHHBGZ-7" value="&lt;font style=&quot;font-size: 10px&quot;&gt;Leaf switches&lt;br&gt;&lt;/font&gt;" style="text;html=1;align=center;verticalAlign=middle;resizable=0;points=[];autosize=1;fontSize=10;fontFamily=Google Sans;fontStyle=0;fontColor=#FFFFFF;fontSource=https%3A%2F%2Ffonts.googleapis.com%2Fcss%3Ffamily%3DGoogle%2BSans;" vertex="1" parent="6ZO-cmNdnnO5XEdHHBGZ-1">
          <mxGeometry x="214" y="406" width="80" height="24" as="geometry" />
        </mxCell>
        <mxCell id="6ZO-cmNdnnO5XEdHHBGZ-8" value="" style="group;fontFamily=Manrope;fontSource=https%3A%2F%2Ffonts.googleapis.com%2Fcss%3Ffamily%3DManrope;" vertex="1" connectable="0" parent="6ZO-cmNdnnO5XEdHHBGZ-1">
          <mxGeometry x="423" y="403" width="30" height="30" as="geometry" />
        </mxCell>
        <mxCell id="6ZO-cmNdnnO5XEdHHBGZ-9" value="" style="whiteSpace=wrap;html=1;aspect=fixed;fillColor=#001135;strokeColor=none;connectable=1;allowArrows=1;fontFamily=Manrope;fontSource=https%3A%2F%2Ffonts.googleapis.com%2Fcss%3Ffamily%3DManrope;" vertex="1" parent="6ZO-cmNdnnO5XEdHHBGZ-8">
          <mxGeometry width="30" height="30" as="geometry" />
        </mxCell>
        <mxCell id="6ZO-cmNdnnO5XEdHHBGZ-10" value="" style="endArrow=open;html=1;edgeStyle=orthogonalEdgeStyle;rounded=0;endFill=0;startSize=6;endSize=2;strokeColor=#FFFFFF;fontFamily=Manrope;fontSource=https%3A%2F%2Ffonts.googleapis.com%2Fcss%3Ffamily%3DManrope;" edge="1" parent="6ZO-cmNdnnO5XEdHHBGZ-8">
          <mxGeometry width="50" height="50" relative="1" as="geometry">
            <mxPoint x="3" y="12" as="sourcePoint" />
            <mxPoint x="11" y="3" as="targetPoint" />
            <Array as="points">
              <mxPoint x="11" y="12" />
            </Array>
          </mxGeometry>
        </mxCell>
        <mxCell id="6ZO-cmNdnnO5XEdHHBGZ-11" value="" style="endArrow=open;html=1;edgeStyle=orthogonalEdgeStyle;rounded=0;endFill=0;startSize=6;endSize=2;strokeColor=#FFFFFF;fontFamily=Manrope;fontSource=https%3A%2F%2Ffonts.googleapis.com%2Fcss%3Ffamily%3DManrope;" edge="1" parent="6ZO-cmNdnnO5XEdHHBGZ-8">
          <mxGeometry width="50" height="50" relative="1" as="geometry">
            <mxPoint x="11" y="27" as="sourcePoint" />
            <mxPoint x="3" y="19" as="targetPoint" />
            <Array as="points">
              <mxPoint x="11" y="19" />
            </Array>
          </mxGeometry>
        </mxCell>
        <mxCell id="6ZO-cmNdnnO5XEdHHBGZ-12" value="" style="endArrow=open;html=1;edgeStyle=orthogonalEdgeStyle;rounded=0;endFill=0;startSize=6;endSize=2;strokeColor=#FFFFFF;fontFamily=Manrope;fontSource=https%3A%2F%2Ffonts.googleapis.com%2Fcss%3Ffamily%3DManrope;" edge="1" parent="6ZO-cmNdnnO5XEdHHBGZ-8">
          <mxGeometry width="50" height="50" relative="1" as="geometry">
            <mxPoint x="18" y="3" as="sourcePoint" />
            <mxPoint x="27" y="12" as="targetPoint" />
            <Array as="points">
              <mxPoint x="18" y="12" />
            </Array>
          </mxGeometry>
        </mxCell>
        <mxCell id="6ZO-cmNdnnO5XEdHHBGZ-13" value="" style="endArrow=open;html=1;edgeStyle=orthogonalEdgeStyle;rounded=0;endFill=0;startSize=6;endSize=2;strokeColor=#FFFFFF;fontFamily=Manrope;fontSource=https%3A%2F%2Ffonts.googleapis.com%2Fcss%3Ffamily%3DManrope;" edge="1" parent="6ZO-cmNdnnO5XEdHHBGZ-8">
          <mxGeometry width="50" height="50" relative="1" as="geometry">
            <mxPoint x="27" y="19" as="sourcePoint" />
            <mxPoint x="18" y="27" as="targetPoint" />
            <Array as="points">
              <mxPoint x="18" y="19" />
            </Array>
          </mxGeometry>
        </mxCell>
        <mxCell id="6ZO-cmNdnnO5XEdHHBGZ-14" value="" style="group" vertex="1" connectable="0" parent="6ZO-cmNdnnO5XEdHHBGZ-1">
          <mxGeometry x="312" y="403" width="177" height="114.00000000000006" as="geometry" />
        </mxCell>
        <mxCell id="6ZO-cmNdnnO5XEdHHBGZ-15" value="" style="whiteSpace=wrap;html=1;aspect=fixed;fillColor=#001135;strokeColor=none;connectable=1;allowArrows=1;fontFamily=Manrope;fontSource=https%3A%2F%2Ffonts.googleapis.com%2Fcss%3Ffamily%3DManrope;" vertex="1" parent="6ZO-cmNdnnO5XEdHHBGZ-14">
          <mxGeometry width="30" height="30" as="geometry" />
        </mxCell>
        <mxCell id="6ZO-cmNdnnO5XEdHHBGZ-16" value="" style="endArrow=open;html=1;edgeStyle=orthogonalEdgeStyle;rounded=0;endFill=0;startSize=6;endSize=2;strokeColor=#FFFFFF;fontFamily=Manrope;fontSource=https%3A%2F%2Ffonts.googleapis.com%2Fcss%3Ffamily%3DManrope;" edge="1" parent="6ZO-cmNdnnO5XEdHHBGZ-14">
          <mxGeometry width="50" height="50" as="geometry">
            <mxPoint x="3" y="12" as="sourcePoint" />
            <mxPoint x="11" y="3" as="targetPoint" />
            <Array as="points">
              <mxPoint x="11" y="12" />
            </Array>
          </mxGeometry>
        </mxCell>
        <mxCell id="6ZO-cmNdnnO5XEdHHBGZ-17" value="" style="endArrow=open;html=1;edgeStyle=orthogonalEdgeStyle;rounded=0;endFill=0;startSize=6;endSize=2;strokeColor=#FFFFFF;fontFamily=Manrope;fontSource=https%3A%2F%2Ffonts.googleapis.com%2Fcss%3Ffamily%3DManrope;" edge="1" parent="6ZO-cmNdnnO5XEdHHBGZ-14">
          <mxGeometry width="50" height="50" as="geometry">
            <mxPoint x="11" y="27" as="sourcePoint" />
            <mxPoint x="3" y="19" as="targetPoint" />
            <Array as="points">
              <mxPoint x="11" y="19" />
            </Array>
          </mxGeometry>
        </mxCell>
        <mxCell id="6ZO-cmNdnnO5XEdHHBGZ-18" value="" style="endArrow=open;html=1;edgeStyle=orthogonalEdgeStyle;rounded=0;endFill=0;startSize=6;endSize=2;strokeColor=#FFFFFF;fontFamily=Manrope;fontSource=https%3A%2F%2Ffonts.googleapis.com%2Fcss%3Ffamily%3DManrope;" edge="1" parent="6ZO-cmNdnnO5XEdHHBGZ-14">
          <mxGeometry width="50" height="50" as="geometry">
            <mxPoint x="18" y="3" as="sourcePoint" />
            <mxPoint x="27" y="12" as="targetPoint" />
            <Array as="points">
              <mxPoint x="18" y="12" />
            </Array>
          </mxGeometry>
        </mxCell>
        <mxCell id="6ZO-cmNdnnO5XEdHHBGZ-19" value="" style="endArrow=open;html=1;edgeStyle=orthogonalEdgeStyle;rounded=0;endFill=0;startSize=6;endSize=2;strokeColor=#FFFFFF;fontFamily=Manrope;fontSource=https%3A%2F%2Ffonts.googleapis.com%2Fcss%3Ffamily%3DManrope;" edge="1" parent="6ZO-cmNdnnO5XEdHHBGZ-14">
          <mxGeometry width="50" height="50" as="geometry">
            <mxPoint x="27" y="19" as="sourcePoint" />
            <mxPoint x="18" y="27" as="targetPoint" />
            <Array as="points">
              <mxPoint x="18" y="19" />
            </Array>
          </mxGeometry>
        </mxCell>
        <mxCell id="6ZO-cmNdnnO5XEdHHBGZ-20" value="" style="ellipse;whiteSpace=wrap;html=1;fillColor=none;strokeColor=#98a2ae;" vertex="1" parent="6ZO-cmNdnnO5XEdHHBGZ-14">
          <mxGeometry x="59" y="79" width="32" height="4" as="geometry" />
        </mxCell>
        <mxCell id="6ZO-cmNdnnO5XEdHHBGZ-21" value="&lt;font style=&quot;font-size: 8px;&quot;&gt;10/25G&lt;/font&gt;" style="text;html=1;align=center;verticalAlign=middle;resizable=0;points=[];autosize=1;fontSize=10;fontFamily=Google Sans;fontStyle=0;fontColor=#FFFFFF;connectable=0;rotation=45;fontSource=https%3A%2F%2Ffonts.googleapis.com%2Fcss%3Ffamily%3DGoogle%2BSans;" vertex="1" parent="6ZO-cmNdnnO5XEdHHBGZ-14">
          <mxGeometry x="23" y="41.5" width="44" height="24" as="geometry" />
        </mxCell>
        <mxCell id="6ZO-cmNdnnO5XEdHHBGZ-22" value="&lt;font style=&quot;font-size: 8px;&quot;&gt;10/25G&lt;/font&gt;" style="text;html=1;align=center;verticalAlign=middle;resizable=0;points=[];autosize=1;fontSize=10;fontFamily=Google Sans;fontStyle=0;fontColor=#FFFFFF;connectable=0;rotation=-52;fontSource=https%3A%2F%2Ffonts.googleapis.com%2Fcss%3Ffamily%3DGoogle%2BSans;" vertex="1" parent="6ZO-cmNdnnO5XEdHHBGZ-14">
          <mxGeometry x="74" y="47" width="44" height="24" as="geometry" />
        </mxCell>
        <mxCell id="6ZO-cmNdnnO5XEdHHBGZ-23" value="" style="shape=image;editableCssRules=\.st[02];verticalLabelPosition=bottom;labelBackgroundColor=#ffffff;verticalAlign=top;aspect=fixed;imageAspect=0;image=data:image/svg+xml,PHN2ZyB4bWxucz0iaHR0cDovL3d3dy53My5vcmcvMjAwMC9zdmciIHhtbG5zOnhsaW5rPSJodHRwOi8vd3d3LnczLm9yZy8xOTk5L3hsaW5rIiB2ZXJzaW9uPSIxLjEiIGlkPSJMYXllcl8xIiB4PSIwcHgiIHk9IjBweCIgd2lkdGg9IjE0MS42OTk5OTY5NDgyNDIyIiBoZWlnaHQ9IjE0MS42OTk5OTY5NDgyNDIyIiB2aWV3Qm94PSIwIDAgMTQxLjY5OTk5Njk0ODI0MjIgMTQxLjY5OTk5Njk0ODI0MjIiIHN0eWxlPSJlbmFibGUtYmFja2dyb3VuZDpuZXcgMCAwIDE0MS43IDE0MS43OyIgeG1sOnNwYWNlPSJwcmVzZXJ2ZSI+JiN4YTs8c3R5bGUgdHlwZT0idGV4dC9jc3MiPiYjeGE7CS5zdDB7ZmlsbDojMDAxMTM1O30mI3hhOwkuc3Qxe2ZpbGw6I0ZGRkZGRjt9JiN4YTsJLnN0MntmaWxsOm5vbmU7c3Ryb2tlOiNGRkZGRkY7c3Ryb2tlLXdpZHRoOjQ7c3Ryb2tlLW1pdGVybGltaXQ6MTA7fSYjeGE7CS5zdDN7ZmlsbDpub25lO3N0cm9rZTojRkZGRkZGO3N0cm9rZS13aWR0aDo0O3N0cm9rZS1saW5lam9pbjpyb3VuZDt9JiN4YTsJLnN0NHtmaWxsOiNGRkZGRkY7c3Ryb2tlOiNGRkZGRkY7c3Ryb2tlLW1pdGVybGltaXQ6MTA7fSYjeGE7CS5zdDV7ZmlsbDpub25lO30mI3hhOwkuc3Q2e2ZpbGw6I0ZGRkZGRjtzdHJva2U6I0ZGRkZGRjtzdHJva2Utd2lkdGg6MS42O3N0cm9rZS1taXRlcmxpbWl0OjEwO30mI3hhOwkuc3Q3e2ZpbGw6bm9uZTtzdHJva2U6I0ZGRkZGRjtzdHJva2Utd2lkdGg6NDt9JiN4YTsJLnN0OHtmaWxsOiMwMDExMzU7c3Ryb2tlOiNGRkZGRkY7c3Ryb2tlLXdpZHRoOjQ7c3Ryb2tlLW1pdGVybGltaXQ6MTA7fSYjeGE7CS5zdDl7ZmlsbDpub25lO3N0cm9rZTojRkZGRkZGO3N0cm9rZS13aWR0aDo0LjAwMDI7c3Ryb2tlLW1pdGVybGltaXQ6MTA7fSYjeGE7CS5zdDEwe2ZpbGw6bm9uZTtzdHJva2U6I0ZGRkZGRjtzdHJva2Utd2lkdGg6MC4zO3N0cm9rZS1taXRlcmxpbWl0OjEwO30mI3hhOwkuc3QxMXtmaWxsOm5vbmU7c3Ryb2tlOiNGRkZGRkY7c3Ryb2tlLXdpZHRoOjMuOTk5NTtzdHJva2UtbWl0ZXJsaW1pdDoxMDt9JiN4YTsJLnN0MTJ7ZmlsbDpub25lO3N0cm9rZTojRkZGRkZGO3N0cm9rZS13aWR0aDozLjk5OTY7c3Ryb2tlLW1pdGVybGltaXQ6MTA7fSYjeGE7CS5zdDEze2ZpbGw6bm9uZTtzdHJva2U6I0ZGRkZGRjtzdHJva2Utd2lkdGg6MztzdHJva2UtbWl0ZXJsaW1pdDoxMDt9JiN4YTsJLnN0MTR7ZmlsbDpub25lO3N0cm9rZTojRkZGRkZGO3N0cm9rZS13aWR0aDo0O3N0cm9rZS1saW5lam9pbjpyb3VuZDtzdHJva2UtbWl0ZXJsaW1pdDoxMDt9JiN4YTsJLnN0MTV7ZmlsbDpub25lO3N0cm9rZTojRkZGRkZGO3N0cm9rZS13aWR0aDo0O3N0cm9rZS1saW5lY2FwOnJvdW5kO3N0cm9rZS1saW5lam9pbjpyb3VuZDtzdHJva2UtbWl0ZXJsaW1pdDoxMDt9JiN4YTsJLnN0MTZ7ZmlsbDojMDAxODQ1O3N0cm9rZTojRkZGRkZGO3N0cm9rZS13aWR0aDo0LjM1NjY7c3Ryb2tlLWxpbmVjYXA6cm91bmQ7c3Ryb2tlLWxpbmVqb2luOnJvdW5kO3N0cm9rZS1taXRlcmxpbWl0OjEwO30mI3hhOwkuc3QxN3tmaWxsOm5vbmU7c3Ryb2tlOiNGRkZGRkY7c3Ryb2tlLXdpZHRoOjQ7c3Ryb2tlLWxpbmVjYXA6cm91bmQ7fSYjeGE7CS5zdDE4e2ZpbGw6IzAwMTEzNTtzdHJva2U6I0ZGRkZGRjtzdHJva2Utd2lkdGg6NDtzdHJva2UtbGluZWNhcDpyb3VuZDtzdHJva2UtbGluZWpvaW46cm91bmQ7fSYjeGE7CS5zdDE5e2ZpbGw6I0ZGRkZGRjtzdHJva2U6I0ZGRkZGRjtzdHJva2Utd2lkdGg6MC41O30mI3hhOwkuc3QyMHtmaWxsOm5vbmU7c3Ryb2tlOiNGRkZGRkY7c3Ryb2tlLXdpZHRoOjQ7c3Ryb2tlLWxpbmVjYXA6cm91bmQ7c3Ryb2tlLW1pdGVybGltaXQ6MTA7fSYjeGE7CS5zdDIxe2ZpbGw6I0ZGRkZGRjtzdHJva2U6I0ZGRkZGRjtzdHJva2Utd2lkdGg6NDtzdHJva2UtbWl0ZXJsaW1pdDoxMDt9JiN4YTsJLnN0MjJ7ZmlsbDojMDAxMTM1O3N0cm9rZTojRkZGRkZGO3N0cm9rZS13aWR0aDo0O3N0cm9rZS1saW5lY2FwOnJvdW5kO3N0cm9rZS1taXRlcmxpbWl0OjEwO30mI3hhOwkuc3QyM3tmaWxsOm5vbmU7c3Ryb2tlOiNGRkZGRkY7c3Ryb2tlLXdpZHRoOjQ7c3Ryb2tlLWxpbmVjYXA6cm91bmQ7c3Ryb2tlLWxpbmVqb2luOnJvdW5kO30mI3hhOwkuc3QyNHtmaWxsOm5vbmU7c3Ryb2tlOiNGRkZGRkY7c3Ryb2tlLXdpZHRoOjQuMDAwMTt9JiN4YTsJLnN0MjV7ZmlsbDpub25lO3N0cm9rZTojRkZGRkZGO3N0cm9rZS13aWR0aDo0LjAwMDE7c3Ryb2tlLWxpbmVjYXA6cm91bmQ7fSYjeGE7CS5zdDI2e2ZpbGw6IzAwMTEzNTtzdHJva2U6I0ZGRkZGRjtzdHJva2Utd2lkdGg6NDt9JiN4YTsJLnN0Mjd7ZmlsbDpub25lO3N0cm9rZTojRkZGRkZGO3N0cm9rZS13aWR0aDo0O3N0cm9rZS1taXRlcmxpbWl0OjEwO3N0cm9rZS1kYXNoYXJyYXk6Ny45NjcsMy45ODM1O30mI3hhOwkuc3QyOHtmaWxsOm5vbmU7c3Ryb2tlOiNGRkZGRkY7c3Ryb2tlLXdpZHRoOjQ7c3Ryb2tlLW1pdGVybGltaXQ6MTA7c3Ryb2tlLWRhc2hhcnJheTo2LjU2MTQsMi4xODcxO30mI3hhOwkuc3QyOXtmaWxsOm5vbmU7c3Ryb2tlOiNGRkZGRkY7c3Ryb2tlLXdpZHRoOjQ7c3Ryb2tlLW1pdGVybGltaXQ6MTA7c3Ryb2tlLWRhc2hhcnJheToxNC4zOTA2LDQuNzk2OTt9JiN4YTsJLnN0MzB7ZmlsbDpub25lO3N0cm9rZTojRkZGRkZGO3N0cm9rZS13aWR0aDo0O3N0cm9rZS1taXRlcmxpbWl0OjEwO3N0cm9rZS1kYXNoYXJyYXk6OC44ODM5LDIuOTYxMzt9JiN4YTsJLnN0MzF7ZmlsbDpub25lO3N0cm9rZTojRkZGRkZGO3N0cm9rZS13aWR0aDo0O3N0cm9rZS1taXRlcmxpbWl0OjEwO3N0cm9rZS1kYXNoYXJyYXk6NC4zNzQzO30mI3hhOwkuc3QzMntmaWxsOm5vbmU7c3Ryb2tlOiNGRkZGRkY7c3Ryb2tlLXdpZHRoOjQ7c3Ryb2tlLW1pdGVybGltaXQ6MTA7c3Ryb2tlLWRhc2hhcnJheTo4LjIyNTgsMi43NDE5O30mI3hhOwkuc3QzM3tmaWxsOiMwMDExMzU7c3Ryb2tlOiNGRkZGRkY7c3Ryb2tlLXdpZHRoOjQuMDI1NTtzdHJva2UtbWl0ZXJsaW1pdDoxMDt9JiN4YTs8L3N0eWxlPiYjeGE7PHJlY3QgY2xhc3M9InN0MCIgd2lkdGg9IjE0MS43IiBoZWlnaHQ9IjE0MS43Ii8+JiN4YTs8cGF0aCBjbGFzcz0ic3QxIiBkPSJNNTcuNiwxMTYuMWgyNi41VjI1LjZINTcuNlYxMTYuMXogTTg4LjEsMTIwLjFINTMuNlYyMS42aDM0LjVWMTIwLjF6Ii8+JiN4YTs8cmVjdCB4PSI1NS42IiB5PSIzMy40IiBjbGFzcz0ic3QxIiB3aWR0aD0iMzAuNSIgaGVpZ2h0PSI0Ii8+JiN4YTs8cmVjdCB4PSI1NS42IiB5PSI4MC43IiBjbGFzcz0ic3QxIiB3aWR0aD0iMzAuNSIgaGVpZ2h0PSI0Ii8+JiN4YTs8cGF0aCBjbGFzcz0ic3QxIiBkPSJNNjQuNCw3MC45YzAtMS42LDEuMy0yLjgsMi44LTIuOGMxLjYsMCwyLjgsMS4zLDIuOCwyLjhjMCwxLjYtMS4zLDIuOC0yLjgsMi44QzY1LjYsNzMuNyw2NC40LDcyLjQsNjQuNCw3MC45Ii8+JiN4YTs8L3N2Zz4=;" vertex="1" parent="6ZO-cmNdnnO5XEdHHBGZ-1">
          <mxGeometry x="374" y="491.00000000000006" width="26" height="26" as="geometry" />
        </mxCell>
        <mxCell id="6ZO-cmNdnnO5XEdHHBGZ-24" style="rounded=0;orthogonalLoop=1;jettySize=auto;html=1;exitX=0.5;exitY=1;exitDx=0;exitDy=0;startSize=6;endArrow=none;endFill=0;endSize=2;fontFamily=Manrope;fontSize=8;strokeColor=#98A2AE;fontSource=https%3A%2F%2Ffonts.googleapis.com%2Fcss%3Ffamily%3DManrope;entryX=0.75;entryY=0;entryDx=0;entryDy=0;" edge="1" parent="6ZO-cmNdnnO5XEdHHBGZ-1" source="6ZO-cmNdnnO5XEdHHBGZ-9" target="6ZO-cmNdnnO5XEdHHBGZ-23">
          <mxGeometry relative="1" as="geometry">
            <mxPoint x="329" y="435" as="sourcePoint" />
            <mxPoint x="383" y="493" as="targetPoint" />
          </mxGeometry>
        </mxCell>
        <mxCell id="6ZO-cmNdnnO5XEdHHBGZ-25" value="" style="group" vertex="1" connectable="0" parent="6ZO-cmNdnnO5XEdHHBGZ-1">
          <mxGeometry x="393" y="323" width="30" height="30" as="geometry" />
        </mxCell>
        <mxCell id="6ZO-cmNdnnO5XEdHHBGZ-26" value="" style="whiteSpace=wrap;html=1;aspect=fixed;fillColor=#98A2AE;strokeColor=none;connectable=1;allowArrows=1;fontFamily=Manrope;fontSource=https%3A%2F%2Ffonts.googleapis.com%2Fcss%3Ffamily%3DManrope;" vertex="1" parent="6ZO-cmNdnnO5XEdHHBGZ-25">
          <mxGeometry width="30" height="30" as="geometry" />
        </mxCell>
        <mxCell id="6ZO-cmNdnnO5XEdHHBGZ-27" value="" style="endArrow=open;html=1;edgeStyle=orthogonalEdgeStyle;rounded=0;endFill=0;startSize=6;endSize=2;strokeColor=#FFFFFF;fontFamily=Manrope;fontSource=https%3A%2F%2Ffonts.googleapis.com%2Fcss%3Ffamily%3DManrope;" edge="1" parent="6ZO-cmNdnnO5XEdHHBGZ-25">
          <mxGeometry width="50" height="50" as="geometry">
            <mxPoint x="3" y="12" as="sourcePoint" />
            <mxPoint x="11" y="3" as="targetPoint" />
            <Array as="points">
              <mxPoint x="11" y="12" />
            </Array>
          </mxGeometry>
        </mxCell>
        <mxCell id="6ZO-cmNdnnO5XEdHHBGZ-28" value="" style="endArrow=open;html=1;edgeStyle=orthogonalEdgeStyle;rounded=0;endFill=0;startSize=6;endSize=2;strokeColor=#FFFFFF;fontFamily=Manrope;fontSource=https%3A%2F%2Ffonts.googleapis.com%2Fcss%3Ffamily%3DManrope;" edge="1" parent="6ZO-cmNdnnO5XEdHHBGZ-25">
          <mxGeometry width="50" height="50" as="geometry">
            <mxPoint x="11" y="27" as="sourcePoint" />
            <mxPoint x="3" y="19" as="targetPoint" />
            <Array as="points">
              <mxPoint x="11" y="19" />
            </Array>
          </mxGeometry>
        </mxCell>
        <mxCell id="6ZO-cmNdnnO5XEdHHBGZ-29" value="" style="endArrow=open;html=1;edgeStyle=orthogonalEdgeStyle;rounded=0;endFill=0;startSize=6;endSize=2;strokeColor=#FFFFFF;fontFamily=Manrope;fontSource=https%3A%2F%2Ffonts.googleapis.com%2Fcss%3Ffamily%3DManrope;" edge="1" parent="6ZO-cmNdnnO5XEdHHBGZ-25">
          <mxGeometry width="50" height="50" as="geometry">
            <mxPoint x="18" y="3" as="sourcePoint" />
            <mxPoint x="27" y="12" as="targetPoint" />
            <Array as="points">
              <mxPoint x="18" y="12" />
            </Array>
          </mxGeometry>
        </mxCell>
        <mxCell id="6ZO-cmNdnnO5XEdHHBGZ-30" value="" style="endArrow=open;html=1;edgeStyle=orthogonalEdgeStyle;rounded=0;endFill=0;startSize=6;endSize=2;strokeColor=#FFFFFF;fontFamily=Manrope;fontSource=https%3A%2F%2Ffonts.googleapis.com%2Fcss%3Ffamily%3DManrope;" edge="1" parent="6ZO-cmNdnnO5XEdHHBGZ-25">
          <mxGeometry width="50" height="50" as="geometry">
            <mxPoint x="27" y="19" as="sourcePoint" />
            <mxPoint x="18" y="27" as="targetPoint" />
            <Array as="points">
              <mxPoint x="18" y="19" />
            </Array>
          </mxGeometry>
        </mxCell>
        <mxCell id="6ZO-cmNdnnO5XEdHHBGZ-31" value="" style="group" vertex="1" connectable="0" parent="6ZO-cmNdnnO5XEdHHBGZ-1">
          <mxGeometry x="504" y="324" width="30" height="30" as="geometry" />
        </mxCell>
        <mxCell id="6ZO-cmNdnnO5XEdHHBGZ-32" value="" style="whiteSpace=wrap;html=1;aspect=fixed;fillColor=#98A2AE;strokeColor=none;connectable=1;allowArrows=1;fontFamily=Manrope;fontSource=https%3A%2F%2Ffonts.googleapis.com%2Fcss%3Ffamily%3DManrope;" vertex="1" parent="6ZO-cmNdnnO5XEdHHBGZ-31">
          <mxGeometry width="30" height="30" as="geometry" />
        </mxCell>
        <mxCell id="6ZO-cmNdnnO5XEdHHBGZ-33" value="" style="endArrow=open;html=1;edgeStyle=orthogonalEdgeStyle;rounded=0;endFill=0;startSize=6;endSize=2;strokeColor=#FFFFFF;fontFamily=Manrope;fontSource=https%3A%2F%2Ffonts.googleapis.com%2Fcss%3Ffamily%3DManrope;" edge="1" parent="6ZO-cmNdnnO5XEdHHBGZ-31">
          <mxGeometry width="50" height="50" as="geometry">
            <mxPoint x="3" y="12" as="sourcePoint" />
            <mxPoint x="11" y="3" as="targetPoint" />
            <Array as="points">
              <mxPoint x="11" y="12" />
            </Array>
          </mxGeometry>
        </mxCell>
        <mxCell id="6ZO-cmNdnnO5XEdHHBGZ-34" value="" style="endArrow=open;html=1;edgeStyle=orthogonalEdgeStyle;rounded=0;endFill=0;startSize=6;endSize=2;strokeColor=#FFFFFF;fontFamily=Manrope;fontSource=https%3A%2F%2Ffonts.googleapis.com%2Fcss%3Ffamily%3DManrope;" edge="1" parent="6ZO-cmNdnnO5XEdHHBGZ-31">
          <mxGeometry width="50" height="50" as="geometry">
            <mxPoint x="11" y="27" as="sourcePoint" />
            <mxPoint x="3" y="19" as="targetPoint" />
            <Array as="points">
              <mxPoint x="11" y="19" />
            </Array>
          </mxGeometry>
        </mxCell>
        <mxCell id="6ZO-cmNdnnO5XEdHHBGZ-35" value="" style="endArrow=open;html=1;edgeStyle=orthogonalEdgeStyle;rounded=0;endFill=0;startSize=6;endSize=2;strokeColor=#FFFFFF;fontFamily=Manrope;fontSource=https%3A%2F%2Ffonts.googleapis.com%2Fcss%3Ffamily%3DManrope;" edge="1" parent="6ZO-cmNdnnO5XEdHHBGZ-31">
          <mxGeometry width="50" height="50" as="geometry">
            <mxPoint x="18" y="3" as="sourcePoint" />
            <mxPoint x="27" y="12" as="targetPoint" />
            <Array as="points">
              <mxPoint x="18" y="12" />
            </Array>
          </mxGeometry>
        </mxCell>
        <mxCell id="6ZO-cmNdnnO5XEdHHBGZ-36" value="" style="endArrow=open;html=1;edgeStyle=orthogonalEdgeStyle;rounded=0;endFill=0;startSize=6;endSize=2;strokeColor=#FFFFFF;fontFamily=Manrope;fontSource=https%3A%2F%2Ffonts.googleapis.com%2Fcss%3Ffamily%3DManrope;" edge="1" parent="6ZO-cmNdnnO5XEdHHBGZ-31">
          <mxGeometry width="50" height="50" as="geometry">
            <mxPoint x="27" y="19" as="sourcePoint" />
            <mxPoint x="18" y="27" as="targetPoint" />
            <Array as="points">
              <mxPoint x="18" y="19" />
            </Array>
          </mxGeometry>
        </mxCell>
        <mxCell id="6ZO-cmNdnnO5XEdHHBGZ-37" value="&lt;font style=&quot;font-size: 10px&quot;&gt;Spine switches&lt;br&gt;&lt;/font&gt;" style="text;html=1;align=center;verticalAlign=middle;resizable=0;points=[];autosize=1;fontSize=10;fontFamily=Google Sans;fontStyle=0;fontColor=#FFFFFF;fontSource=https%3A%2F%2Ffonts.googleapis.com%2Fcss%3Ffamily%3DGoogle%2BSans;" vertex="1" parent="6ZO-cmNdnnO5XEdHHBGZ-1">
          <mxGeometry x="295" y="327" width="85" height="24" as="geometry" />
        </mxCell>
        <mxCell id="6ZO-cmNdnnO5XEdHHBGZ-38" value="&lt;font style=&quot;&quot;&gt;Compute&lt;br&gt;&lt;font color=&quot;#cccccc&quot; style=&quot;font-size: 8px;&quot;&gt;(1 Rack, 50 dual homed servers)&lt;/font&gt;&lt;br&gt;&lt;/font&gt;" style="text;html=1;align=center;verticalAlign=middle;resizable=0;points=[];autosize=1;fontSize=10;fontFamily=Google Sans;fontStyle=0;fontColor=#FFFFFF;fontSource=https%3A%2F%2Ffonts.googleapis.com%2Fcss%3Ffamily%3DGoogle%2BSans;" vertex="1" parent="6ZO-cmNdnnO5XEdHHBGZ-1">
          <mxGeometry x="192" y="486" width="132" height="36" as="geometry" />
        </mxCell>
        <mxCell id="6ZO-cmNdnnO5XEdHHBGZ-39" value="&lt;font style=&quot;font-size: 8px;&quot;&gt;100G&lt;/font&gt;" style="text;html=1;align=center;verticalAlign=middle;resizable=0;points=[];autosize=1;fontSize=10;fontFamily=Google Sans;fontStyle=0;fontColor=#FFFFFF;connectable=0;rotation=-33;fontSource=https%3A%2F%2Ffonts.googleapis.com%2Fcss%3Ffamily%3DGoogle%2BSans;" vertex="1" parent="6ZO-cmNdnnO5XEdHHBGZ-1">
          <mxGeometry x="334" y="367" width="38" height="24" as="geometry" />
        </mxCell>
        <mxCell id="y5E_3cJ_6syK_cVxJvcB-12" style="rounded=0;orthogonalLoop=1;jettySize=auto;html=1;exitX=0.5;exitY=1;exitDx=0;exitDy=0;startSize=6;endArrow=none;endFill=0;endSize=2;fontFamily=Manrope;fontSize=8;strokeColor=#98A2AE;fontSource=https%3A%2F%2Ffonts.googleapis.com%2Fcss%3Ffamily%3DManrope;entryX=0.25;entryY=0;entryDx=0;entryDy=0;" edge="1" parent="6ZO-cmNdnnO5XEdHHBGZ-1" source="y5E_3cJ_6syK_cVxJvcB-20" target="y5E_3cJ_6syK_cVxJvcB-28">
          <mxGeometry relative="1" as="geometry">
            <mxPoint x="492" y="405" as="sourcePoint" />
            <mxPoint x="548" y="304" as="targetPoint" />
          </mxGeometry>
        </mxCell>
        <mxCell id="y5E_3cJ_6syK_cVxJvcB-28" value="" style="shape=image;editableCssRules=\.st[02];verticalLabelPosition=bottom;labelBackgroundColor=#ffffff;verticalAlign=top;aspect=fixed;imageAspect=0;image=data:image/svg+xml,PHN2ZyB4bWxucz0iaHR0cDovL3d3dy53My5vcmcvMjAwMC9zdmciIHhtbG5zOnhsaW5rPSJodHRwOi8vd3d3LnczLm9yZy8xOTk5L3hsaW5rIiB2ZXJzaW9uPSIxLjEiIGlkPSJMYXllcl8xIiB4PSIwcHgiIHk9IjBweCIgd2lkdGg9IjE0MS42OTk5OTY5NDgyNDIyIiBoZWlnaHQ9IjE0MS42OTk5OTY5NDgyNDIyIiB2aWV3Qm94PSIwIDAgMTQxLjY5OTk5Njk0ODI0MjIgMTQxLjY5OTk5Njk0ODI0MjIiIHN0eWxlPSJlbmFibGUtYmFja2dyb3VuZDpuZXcgMCAwIDE0MS43IDE0MS43OyIgeG1sOnNwYWNlPSJwcmVzZXJ2ZSI+JiN4YTs8c3R5bGUgdHlwZT0idGV4dC9jc3MiPiYjeGE7CS5zdDB7ZmlsbDojMDAxMTM1O30mI3hhOwkuc3Qxe2ZpbGw6I0ZGRkZGRjt9JiN4YTsJLnN0MntmaWxsOm5vbmU7c3Ryb2tlOiNGRkZGRkY7c3Ryb2tlLXdpZHRoOjQ7c3Ryb2tlLW1pdGVybGltaXQ6MTA7fSYjeGE7CS5zdDN7ZmlsbDpub25lO3N0cm9rZTojRkZGRkZGO3N0cm9rZS13aWR0aDo0O3N0cm9rZS1saW5lam9pbjpyb3VuZDt9JiN4YTsJLnN0NHtmaWxsOiNGRkZGRkY7c3Ryb2tlOiNGRkZGRkY7c3Ryb2tlLW1pdGVybGltaXQ6MTA7fSYjeGE7CS5zdDV7ZmlsbDpub25lO30mI3hhOwkuc3Q2e2ZpbGw6I0ZGRkZGRjtzdHJva2U6I0ZGRkZGRjtzdHJva2Utd2lkdGg6MS42O3N0cm9rZS1taXRlcmxpbWl0OjEwO30mI3hhOwkuc3Q3e2ZpbGw6bm9uZTtzdHJva2U6I0ZGRkZGRjtzdHJva2Utd2lkdGg6NDt9JiN4YTsJLnN0OHtmaWxsOiMwMDExMzU7c3Ryb2tlOiNGRkZGRkY7c3Ryb2tlLXdpZHRoOjQ7c3Ryb2tlLW1pdGVybGltaXQ6MTA7fSYjeGE7CS5zdDl7ZmlsbDpub25lO3N0cm9rZTojRkZGRkZGO3N0cm9rZS13aWR0aDo0LjAwMDI7c3Ryb2tlLW1pdGVybGltaXQ6MTA7fSYjeGE7CS5zdDEwe2ZpbGw6bm9uZTtzdHJva2U6I0ZGRkZGRjtzdHJva2Utd2lkdGg6MC4zO3N0cm9rZS1taXRlcmxpbWl0OjEwO30mI3hhOwkuc3QxMXtmaWxsOm5vbmU7c3Ryb2tlOiNGRkZGRkY7c3Ryb2tlLXdpZHRoOjMuOTk5NTtzdHJva2UtbWl0ZXJsaW1pdDoxMDt9JiN4YTsJLnN0MTJ7ZmlsbDpub25lO3N0cm9rZTojRkZGRkZGO3N0cm9rZS13aWR0aDozLjk5OTY7c3Ryb2tlLW1pdGVybGltaXQ6MTA7fSYjeGE7CS5zdDEze2ZpbGw6bm9uZTtzdHJva2U6I0ZGRkZGRjtzdHJva2Utd2lkdGg6MztzdHJva2UtbWl0ZXJsaW1pdDoxMDt9JiN4YTsJLnN0MTR7ZmlsbDpub25lO3N0cm9rZTojRkZGRkZGO3N0cm9rZS13aWR0aDo0O3N0cm9rZS1saW5lam9pbjpyb3VuZDtzdHJva2UtbWl0ZXJsaW1pdDoxMDt9JiN4YTsJLnN0MTV7ZmlsbDpub25lO3N0cm9rZTojRkZGRkZGO3N0cm9rZS13aWR0aDo0O3N0cm9rZS1saW5lY2FwOnJvdW5kO3N0cm9rZS1saW5lam9pbjpyb3VuZDtzdHJva2UtbWl0ZXJsaW1pdDoxMDt9JiN4YTsJLnN0MTZ7ZmlsbDojMDAxODQ1O3N0cm9rZTojRkZGRkZGO3N0cm9rZS13aWR0aDo0LjM1NjY7c3Ryb2tlLWxpbmVjYXA6cm91bmQ7c3Ryb2tlLWxpbmVqb2luOnJvdW5kO3N0cm9rZS1taXRlcmxpbWl0OjEwO30mI3hhOwkuc3QxN3tmaWxsOm5vbmU7c3Ryb2tlOiNGRkZGRkY7c3Ryb2tlLXdpZHRoOjQ7c3Ryb2tlLWxpbmVjYXA6cm91bmQ7fSYjeGE7CS5zdDE4e2ZpbGw6IzAwMTEzNTtzdHJva2U6I0ZGRkZGRjtzdHJva2Utd2lkdGg6NDtzdHJva2UtbGluZWNhcDpyb3VuZDtzdHJva2UtbGluZWpvaW46cm91bmQ7fSYjeGE7CS5zdDE5e2ZpbGw6I0ZGRkZGRjtzdHJva2U6I0ZGRkZGRjtzdHJva2Utd2lkdGg6MC41O30mI3hhOwkuc3QyMHtmaWxsOm5vbmU7c3Ryb2tlOiNGRkZGRkY7c3Ryb2tlLXdpZHRoOjQ7c3Ryb2tlLWxpbmVjYXA6cm91bmQ7c3Ryb2tlLW1pdGVybGltaXQ6MTA7fSYjeGE7CS5zdDIxe2ZpbGw6I0ZGRkZGRjtzdHJva2U6I0ZGRkZGRjtzdHJva2Utd2lkdGg6NDtzdHJva2UtbWl0ZXJsaW1pdDoxMDt9JiN4YTsJLnN0MjJ7ZmlsbDojMDAxMTM1O3N0cm9rZTojRkZGRkZGO3N0cm9rZS13aWR0aDo0O3N0cm9rZS1saW5lY2FwOnJvdW5kO3N0cm9rZS1taXRlcmxpbWl0OjEwO30mI3hhOwkuc3QyM3tmaWxsOm5vbmU7c3Ryb2tlOiNGRkZGRkY7c3Ryb2tlLXdpZHRoOjQ7c3Ryb2tlLWxpbmVjYXA6cm91bmQ7c3Ryb2tlLWxpbmVqb2luOnJvdW5kO30mI3hhOwkuc3QyNHtmaWxsOm5vbmU7c3Ryb2tlOiNGRkZGRkY7c3Ryb2tlLXdpZHRoOjQuMDAwMTt9JiN4YTsJLnN0MjV7ZmlsbDpub25lO3N0cm9rZTojRkZGRkZGO3N0cm9rZS13aWR0aDo0LjAwMDE7c3Ryb2tlLWxpbmVjYXA6cm91bmQ7fSYjeGE7CS5zdDI2e2ZpbGw6IzAwMTEzNTtzdHJva2U6I0ZGRkZGRjtzdHJva2Utd2lkdGg6NDt9JiN4YTsJLnN0Mjd7ZmlsbDpub25lO3N0cm9rZTojRkZGRkZGO3N0cm9rZS13aWR0aDo0O3N0cm9rZS1taXRlcmxpbWl0OjEwO3N0cm9rZS1kYXNoYXJyYXk6Ny45NjcsMy45ODM1O30mI3hhOwkuc3QyOHtmaWxsOm5vbmU7c3Ryb2tlOiNGRkZGRkY7c3Ryb2tlLXdpZHRoOjQ7c3Ryb2tlLW1pdGVybGltaXQ6MTA7c3Ryb2tlLWRhc2hhcnJheTo2LjU2MTQsMi4xODcxO30mI3hhOwkuc3QyOXtmaWxsOm5vbmU7c3Ryb2tlOiNGRkZGRkY7c3Ryb2tlLXdpZHRoOjQ7c3Ryb2tlLW1pdGVybGltaXQ6MTA7c3Ryb2tlLWRhc2hhcnJheToxNC4zOTA2LDQuNzk2OTt9JiN4YTsJLnN0MzB7ZmlsbDpub25lO3N0cm9rZTojRkZGRkZGO3N0cm9rZS13aWR0aDo0O3N0cm9rZS1taXRlcmxpbWl0OjEwO3N0cm9rZS1kYXNoYXJyYXk6OC44ODM5LDIuOTYxMzt9JiN4YTsJLnN0MzF7ZmlsbDpub25lO3N0cm9rZTojRkZGRkZGO3N0cm9rZS13aWR0aDo0O3N0cm9rZS1taXRlcmxpbWl0OjEwO3N0cm9rZS1kYXNoYXJyYXk6NC4zNzQzO30mI3hhOwkuc3QzMntmaWxsOm5vbmU7c3Ryb2tlOiNGRkZGRkY7c3Ryb2tlLXdpZHRoOjQ7c3Ryb2tlLW1pdGVybGltaXQ6MTA7c3Ryb2tlLWRhc2hhcnJheTo4LjIyNTgsMi43NDE5O30mI3hhOwkuc3QzM3tmaWxsOiMwMDExMzU7c3Ryb2tlOiNGRkZGRkY7c3Ryb2tlLXdpZHRoOjQuMDI1NTtzdHJva2UtbWl0ZXJsaW1pdDoxMDt9JiN4YTs8L3N0eWxlPiYjeGE7PHJlY3QgY2xhc3M9InN0MCIgd2lkdGg9IjE0MS43IiBoZWlnaHQ9IjE0MS43Ii8+JiN4YTs8cGF0aCBjbGFzcz0ic3QxIiBkPSJNNTcuNiwxMTYuMWgyNi41VjI1LjZINTcuNlYxMTYuMXogTTg4LjEsMTIwLjFINTMuNlYyMS42aDM0LjVWMTIwLjF6Ii8+JiN4YTs8cmVjdCB4PSI1NS42IiB5PSIzMy40IiBjbGFzcz0ic3QxIiB3aWR0aD0iMzAuNSIgaGVpZ2h0PSI0Ii8+JiN4YTs8cmVjdCB4PSI1NS42IiB5PSI4MC43IiBjbGFzcz0ic3QxIiB3aWR0aD0iMzAuNSIgaGVpZ2h0PSI0Ii8+JiN4YTs8cGF0aCBjbGFzcz0ic3QxIiBkPSJNNjQuNCw3MC45YzAtMS42LDEuMy0yLjgsMi44LTIuOGMxLjYsMCwyLjgsMS4zLDIuOCwyLjhjMCwxLjYtMS4zLDIuOC0yLjgsMi44QzY1LjYsNzMuNyw2NC40LDcyLjQsNjQuNCw3MC45Ii8+JiN4YTs8L3N2Zz4=;" vertex="1" parent="6ZO-cmNdnnO5XEdHHBGZ-1">
          <mxGeometry x="537" y="491.00000000000006" width="26" height="26" as="geometry" />
        </mxCell>
        <mxCell id="y5E_3cJ_6syK_cVxJvcB-29" style="rounded=0;orthogonalLoop=1;jettySize=auto;html=1;exitX=0.5;exitY=1;exitDx=0;exitDy=0;startSize=6;endArrow=none;endFill=0;endSize=2;fontFamily=Manrope;fontSize=8;strokeColor=#98A2AE;fontSource=https%3A%2F%2Ffonts.googleapis.com%2Fcss%3Ffamily%3DManrope;entryX=0.75;entryY=0;entryDx=0;entryDy=0;" edge="1" parent="6ZO-cmNdnnO5XEdHHBGZ-1" source="y5E_3cJ_6syK_cVxJvcB-14" target="y5E_3cJ_6syK_cVxJvcB-28">
          <mxGeometry relative="1" as="geometry">
            <mxPoint x="492" y="435" as="sourcePoint" />
            <mxPoint x="546" y="493" as="targetPoint" />
          </mxGeometry>
        </mxCell>
        <mxCell id="y5E_3cJ_6syK_cVxJvcB-30" style="rounded=0;orthogonalLoop=1;jettySize=auto;html=1;exitX=0.25;exitY=1;exitDx=0;exitDy=0;startSize=6;endArrow=none;endFill=0;endSize=2;fontFamily=Manrope;fontSize=8;strokeColor=#98A2AE;fontSource=https%3A%2F%2Ffonts.googleapis.com%2Fcss%3Ffamily%3DManrope;entryX=0.25;entryY=0;entryDx=0;entryDy=0;" edge="1" parent="6ZO-cmNdnnO5XEdHHBGZ-1" source="y5E_3cJ_6syK_cVxJvcB-1" target="6ZO-cmNdnnO5XEdHHBGZ-26">
          <mxGeometry relative="1" as="geometry">
            <mxPoint x="410" y="405" as="sourcePoint" />
            <mxPoint x="410" y="355" as="targetPoint" />
          </mxGeometry>
        </mxCell>
        <mxCell id="y5E_3cJ_6syK_cVxJvcB-31" style="rounded=0;orthogonalLoop=1;jettySize=auto;html=1;exitX=0.315;exitY=1.006;exitDx=0;exitDy=0;startSize=6;endArrow=none;endFill=0;endSize=2;fontFamily=Manrope;fontSize=8;strokeColor=#98A2AE;fontSource=https%3A%2F%2Ffonts.googleapis.com%2Fcss%3Ffamily%3DManrope;entryX=0.315;entryY=-0.002;entryDx=0;entryDy=0;entryPerimeter=0;exitPerimeter=0;" edge="1" parent="6ZO-cmNdnnO5XEdHHBGZ-1" source="y5E_3cJ_6syK_cVxJvcB-1" target="6ZO-cmNdnnO5XEdHHBGZ-26">
          <mxGeometry relative="1" as="geometry">
            <mxPoint x="403" y="285" as="sourcePoint" />
            <mxPoint x="403" y="325" as="targetPoint" />
          </mxGeometry>
        </mxCell>
        <mxCell id="y5E_3cJ_6syK_cVxJvcB-32" style="rounded=0;orthogonalLoop=1;jettySize=auto;html=1;exitX=0.25;exitY=1;exitDx=0;exitDy=0;startSize=6;endArrow=none;endFill=0;endSize=2;fontFamily=Manrope;fontSize=8;strokeColor=#98A2AE;fontSource=https%3A%2F%2Ffonts.googleapis.com%2Fcss%3Ffamily%3DManrope;entryX=0.25;entryY=0;entryDx=0;entryDy=0;" edge="1" parent="6ZO-cmNdnnO5XEdHHBGZ-1">
          <mxGeometry relative="1" as="geometry">
            <mxPoint x="527" y="284" as="sourcePoint" />
            <mxPoint x="527" y="324" as="targetPoint" />
          </mxGeometry>
        </mxCell>
        <mxCell id="y5E_3cJ_6syK_cVxJvcB-33" style="rounded=0;orthogonalLoop=1;jettySize=auto;html=1;exitX=0.195;exitY=1.003;exitDx=0;exitDy=0;startSize=6;endArrow=none;endFill=0;endSize=2;fontFamily=Manrope;fontSize=8;strokeColor=#98A2AE;fontSource=https%3A%2F%2Ffonts.googleapis.com%2Fcss%3Ffamily%3DManrope;entryX=0.346;entryY=0;entryDx=0;entryDy=0;entryPerimeter=0;exitPerimeter=0;" edge="1" parent="6ZO-cmNdnnO5XEdHHBGZ-1">
          <mxGeometry relative="1" as="geometry">
            <mxPoint x="528.85" y="284.09" as="sourcePoint" />
            <mxPoint x="529" y="324" as="targetPoint" />
          </mxGeometry>
        </mxCell>
        <mxCell id="y5E_3cJ_6syK_cVxJvcB-34" style="rounded=0;orthogonalLoop=1;jettySize=auto;html=1;exitX=0.116;exitY=0.984;exitDx=0;exitDy=0;startSize=6;endArrow=none;endFill=0;endSize=2;fontFamily=Manrope;fontSize=8;strokeColor=#98A2AE;fontSource=https%3A%2F%2Ffonts.googleapis.com%2Fcss%3Ffamily%3DManrope;entryX=0.778;entryY=0.002;entryDx=0;entryDy=0;exitPerimeter=0;entryPerimeter=0;" edge="1" parent="6ZO-cmNdnnO5XEdHHBGZ-1" source="y5E_3cJ_6syK_cVxJvcB-7" target="6ZO-cmNdnnO5XEdHHBGZ-26">
          <mxGeometry relative="1" as="geometry">
            <mxPoint x="418" y="283" as="sourcePoint" />
            <mxPoint x="418" y="323" as="targetPoint" />
          </mxGeometry>
        </mxCell>
        <mxCell id="y5E_3cJ_6syK_cVxJvcB-35" style="rounded=0;orthogonalLoop=1;jettySize=auto;html=1;exitX=0.207;exitY=1.005;exitDx=0;exitDy=0;startSize=6;endArrow=none;endFill=0;endSize=2;fontFamily=Manrope;fontSize=8;strokeColor=#98A2AE;fontSource=https%3A%2F%2Ffonts.googleapis.com%2Fcss%3Ffamily%3DManrope;entryX=0.971;entryY=0.005;entryDx=0;entryDy=0;entryPerimeter=0;exitPerimeter=0;" edge="1" parent="6ZO-cmNdnnO5XEdHHBGZ-1" source="y5E_3cJ_6syK_cVxJvcB-7" target="6ZO-cmNdnnO5XEdHHBGZ-26">
          <mxGeometry relative="1" as="geometry">
            <mxPoint x="419" y="283" as="sourcePoint" />
            <mxPoint x="419" y="323" as="targetPoint" />
          </mxGeometry>
        </mxCell>
        <mxCell id="y5E_3cJ_6syK_cVxJvcB-6" value="" style="group" vertex="1" connectable="0" parent="6ZO-cmNdnnO5XEdHHBGZ-1">
          <mxGeometry x="504" y="254" width="30" height="30" as="geometry" />
        </mxCell>
        <mxCell id="y5E_3cJ_6syK_cVxJvcB-7" value="" style="whiteSpace=wrap;html=1;aspect=fixed;fillColor=#00C9FF;strokeColor=none;connectable=1;allowArrows=1;fontFamily=Manrope;fontSource=https%3A%2F%2Ffonts.googleapis.com%2Fcss%3Ffamily%3DManrope;" vertex="1" parent="y5E_3cJ_6syK_cVxJvcB-6">
          <mxGeometry width="30" height="30" as="geometry" />
        </mxCell>
        <mxCell id="y5E_3cJ_6syK_cVxJvcB-8" value="" style="endArrow=open;html=1;edgeStyle=orthogonalEdgeStyle;rounded=0;endFill=0;startSize=6;endSize=2;strokeColor=#FFFFFF;fontFamily=Manrope;fontSource=https%3A%2F%2Ffonts.googleapis.com%2Fcss%3Ffamily%3DManrope;" edge="1" parent="y5E_3cJ_6syK_cVxJvcB-6">
          <mxGeometry width="50" height="50" as="geometry">
            <mxPoint x="3" y="12" as="sourcePoint" />
            <mxPoint x="11" y="3" as="targetPoint" />
            <Array as="points">
              <mxPoint x="11" y="12" />
            </Array>
          </mxGeometry>
        </mxCell>
        <mxCell id="y5E_3cJ_6syK_cVxJvcB-9" value="" style="endArrow=open;html=1;edgeStyle=orthogonalEdgeStyle;rounded=0;endFill=0;startSize=6;endSize=2;strokeColor=#FFFFFF;fontFamily=Manrope;fontSource=https%3A%2F%2Ffonts.googleapis.com%2Fcss%3Ffamily%3DManrope;" edge="1" parent="y5E_3cJ_6syK_cVxJvcB-6">
          <mxGeometry width="50" height="50" as="geometry">
            <mxPoint x="11" y="27" as="sourcePoint" />
            <mxPoint x="3" y="19" as="targetPoint" />
            <Array as="points">
              <mxPoint x="11" y="19" />
            </Array>
          </mxGeometry>
        </mxCell>
        <mxCell id="y5E_3cJ_6syK_cVxJvcB-10" value="" style="endArrow=open;html=1;edgeStyle=orthogonalEdgeStyle;rounded=0;endFill=0;startSize=6;endSize=2;strokeColor=#FFFFFF;fontFamily=Manrope;fontSource=https%3A%2F%2Ffonts.googleapis.com%2Fcss%3Ffamily%3DManrope;" edge="1" parent="y5E_3cJ_6syK_cVxJvcB-6">
          <mxGeometry width="50" height="50" as="geometry">
            <mxPoint x="18" y="3" as="sourcePoint" />
            <mxPoint x="27" y="12" as="targetPoint" />
            <Array as="points">
              <mxPoint x="18" y="12" />
            </Array>
          </mxGeometry>
        </mxCell>
        <mxCell id="y5E_3cJ_6syK_cVxJvcB-11" value="" style="endArrow=open;html=1;edgeStyle=orthogonalEdgeStyle;rounded=0;endFill=0;startSize=6;endSize=2;strokeColor=#FFFFFF;fontFamily=Manrope;fontSource=https%3A%2F%2Ffonts.googleapis.com%2Fcss%3Ffamily%3DManrope;" edge="1" parent="y5E_3cJ_6syK_cVxJvcB-6">
          <mxGeometry width="50" height="50" as="geometry">
            <mxPoint x="27" y="19" as="sourcePoint" />
            <mxPoint x="18" y="27" as="targetPoint" />
            <Array as="points">
              <mxPoint x="18" y="19" />
            </Array>
          </mxGeometry>
        </mxCell>
        <mxCell id="y5E_3cJ_6syK_cVxJvcB-36" style="rounded=0;orthogonalLoop=1;jettySize=auto;html=1;startSize=6;endArrow=none;endFill=0;endSize=2;fontFamily=Manrope;fontSize=8;strokeColor=#98A2AE;fontSource=https%3A%2F%2Ffonts.googleapis.com%2Fcss%3Ffamily%3DManrope;" edge="1" parent="6ZO-cmNdnnO5XEdHHBGZ-1">
          <mxGeometry relative="1" as="geometry">
            <mxPoint x="509" y="324" as="sourcePoint" />
            <mxPoint x="420" y="282" as="targetPoint" />
          </mxGeometry>
        </mxCell>
        <mxCell id="y5E_3cJ_6syK_cVxJvcB-37" style="rounded=0;orthogonalLoop=1;jettySize=auto;html=1;startSize=6;endArrow=none;endFill=0;endSize=2;fontFamily=Manrope;fontSize=8;strokeColor=#98A2AE;fontSource=https%3A%2F%2Ffonts.googleapis.com%2Fcss%3Ffamily%3DManrope;entryX=0.065;entryY=0;entryDx=0;entryDy=0;entryPerimeter=0;exitX=0.821;exitY=0.997;exitDx=0;exitDy=0;exitPerimeter=0;" edge="1" parent="6ZO-cmNdnnO5XEdHHBGZ-1" source="y5E_3cJ_6syK_cVxJvcB-1" target="6ZO-cmNdnnO5XEdHHBGZ-32">
          <mxGeometry relative="1" as="geometry">
            <mxPoint x="419" y="283" as="sourcePoint" />
            <mxPoint x="424" y="325" as="targetPoint" />
          </mxGeometry>
        </mxCell>
        <mxCell id="y5E_3cJ_6syK_cVxJvcB-0" value="" style="group" vertex="1" connectable="0" parent="6ZO-cmNdnnO5XEdHHBGZ-1">
          <mxGeometry x="393" y="253" width="30" height="30" as="geometry" />
        </mxCell>
        <mxCell id="y5E_3cJ_6syK_cVxJvcB-1" value="" style="whiteSpace=wrap;html=1;aspect=fixed;fillColor=#00C9FF;strokeColor=none;connectable=1;allowArrows=1;fontFamily=Manrope;fontSource=https%3A%2F%2Ffonts.googleapis.com%2Fcss%3Ffamily%3DManrope;" vertex="1" parent="y5E_3cJ_6syK_cVxJvcB-0">
          <mxGeometry width="30" height="30" as="geometry" />
        </mxCell>
        <mxCell id="y5E_3cJ_6syK_cVxJvcB-2" value="" style="endArrow=open;html=1;edgeStyle=orthogonalEdgeStyle;rounded=0;endFill=0;startSize=6;endSize=2;strokeColor=#FFFFFF;fontFamily=Manrope;fontSource=https%3A%2F%2Ffonts.googleapis.com%2Fcss%3Ffamily%3DManrope;" edge="1" parent="y5E_3cJ_6syK_cVxJvcB-0">
          <mxGeometry width="50" height="50" as="geometry">
            <mxPoint x="3" y="12" as="sourcePoint" />
            <mxPoint x="11" y="3" as="targetPoint" />
            <Array as="points">
              <mxPoint x="11" y="12" />
            </Array>
          </mxGeometry>
        </mxCell>
        <mxCell id="y5E_3cJ_6syK_cVxJvcB-3" value="" style="endArrow=open;html=1;edgeStyle=orthogonalEdgeStyle;rounded=0;endFill=0;startSize=6;endSize=2;strokeColor=#FFFFFF;fontFamily=Manrope;fontSource=https%3A%2F%2Ffonts.googleapis.com%2Fcss%3Ffamily%3DManrope;" edge="1" parent="y5E_3cJ_6syK_cVxJvcB-0">
          <mxGeometry width="50" height="50" as="geometry">
            <mxPoint x="11" y="27" as="sourcePoint" />
            <mxPoint x="3" y="19" as="targetPoint" />
            <Array as="points">
              <mxPoint x="11" y="19" />
            </Array>
          </mxGeometry>
        </mxCell>
        <mxCell id="y5E_3cJ_6syK_cVxJvcB-4" value="" style="endArrow=open;html=1;edgeStyle=orthogonalEdgeStyle;rounded=0;endFill=0;startSize=6;endSize=2;strokeColor=#FFFFFF;fontFamily=Manrope;fontSource=https%3A%2F%2Ffonts.googleapis.com%2Fcss%3Ffamily%3DManrope;" edge="1" parent="y5E_3cJ_6syK_cVxJvcB-0">
          <mxGeometry width="50" height="50" as="geometry">
            <mxPoint x="18" y="3" as="sourcePoint" />
            <mxPoint x="27" y="12" as="targetPoint" />
            <Array as="points">
              <mxPoint x="18" y="12" />
            </Array>
          </mxGeometry>
        </mxCell>
        <mxCell id="y5E_3cJ_6syK_cVxJvcB-5" value="" style="endArrow=open;html=1;edgeStyle=orthogonalEdgeStyle;rounded=0;endFill=0;startSize=6;endSize=2;strokeColor=#FFFFFF;fontFamily=Manrope;fontSource=https%3A%2F%2Ffonts.googleapis.com%2Fcss%3Ffamily%3DManrope;" edge="1" parent="y5E_3cJ_6syK_cVxJvcB-0">
          <mxGeometry width="50" height="50" as="geometry">
            <mxPoint x="27" y="19" as="sourcePoint" />
            <mxPoint x="18" y="27" as="targetPoint" />
            <Array as="points">
              <mxPoint x="18" y="19" />
            </Array>
          </mxGeometry>
        </mxCell>
        <mxCell id="y5E_3cJ_6syK_cVxJvcB-38" value="&lt;font style=&quot;font-size: 8px;&quot;&gt;100G&lt;/font&gt;" style="text;html=1;align=center;verticalAlign=middle;resizable=0;points=[];autosize=1;fontSize=10;fontFamily=Google Sans;fontStyle=0;fontColor=#FFFFFF;connectable=0;rotation=-90;fontSource=https%3A%2F%2Ffonts.googleapis.com%2Fcss%3Ffamily%3DGoogle%2BSans;" vertex="1" parent="6ZO-cmNdnnO5XEdHHBGZ-1">
          <mxGeometry x="375" y="299" width="38" height="24" as="geometry" />
        </mxCell>
        <mxCell id="y5E_3cJ_6syK_cVxJvcB-39" value="&lt;font style=&quot;font-size: 8px;&quot;&gt;100G&lt;/font&gt;" style="text;html=1;align=center;verticalAlign=middle;resizable=0;points=[];autosize=1;fontSize=10;fontFamily=Google Sans;fontStyle=0;fontColor=#FFFFFF;connectable=0;rotation=-23;fontSource=https%3A%2F%2Ffonts.googleapis.com%2Fcss%3Ffamily%3DGoogle%2BSans;" vertex="1" parent="6ZO-cmNdnnO5XEdHHBGZ-1">
          <mxGeometry x="408" y="299" width="38" height="24" as="geometry" />
        </mxCell>
        <mxCell id="y5E_3cJ_6syK_cVxJvcB-40" style="rounded=0;orthogonalLoop=1;jettySize=auto;html=1;exitX=0.5;exitY=0;exitDx=0;exitDy=0;entryX=0.5;entryY=1;entryDx=0;entryDy=0;startSize=6;endArrow=none;endFill=0;endSize=2;fontFamily=Manrope;fontSize=8;strokeColor=#98A2AE;fontSource=https%3A%2F%2Ffonts.googleapis.com%2Fcss%3Ffamily%3DManrope;" edge="1" parent="6ZO-cmNdnnO5XEdHHBGZ-1" source="y5E_3cJ_6syK_cVxJvcB-20" target="6ZO-cmNdnnO5XEdHHBGZ-26">
          <mxGeometry relative="1" as="geometry">
            <mxPoint x="435" y="401" as="sourcePoint" />
            <mxPoint x="332" y="351" as="targetPoint" />
          </mxGeometry>
        </mxCell>
        <mxCell id="y5E_3cJ_6syK_cVxJvcB-42" style="rounded=0;orthogonalLoop=1;jettySize=auto;html=1;exitX=0.5;exitY=0;exitDx=0;exitDy=0;entryX=0.5;entryY=1;entryDx=0;entryDy=0;startSize=6;endArrow=none;endFill=0;endSize=2;fontFamily=Manrope;fontSize=8;strokeColor=#98A2AE;fontSource=https%3A%2F%2Ffonts.googleapis.com%2Fcss%3Ffamily%3DManrope;" edge="1" parent="6ZO-cmNdnnO5XEdHHBGZ-1" source="y5E_3cJ_6syK_cVxJvcB-14" target="6ZO-cmNdnnO5XEdHHBGZ-26">
          <mxGeometry relative="1" as="geometry">
            <mxPoint x="485" y="405" as="sourcePoint" />
            <mxPoint x="334" y="353" as="targetPoint" />
          </mxGeometry>
        </mxCell>
        <mxCell id="y5E_3cJ_6syK_cVxJvcB-43" style="rounded=0;orthogonalLoop=1;jettySize=auto;html=1;exitX=0.5;exitY=0;exitDx=0;exitDy=0;entryX=0.5;entryY=1;entryDx=0;entryDy=0;startSize=6;endArrow=none;endFill=0;endSize=2;fontFamily=Manrope;fontSize=8;strokeColor=#98A2AE;fontSource=https%3A%2F%2Ffonts.googleapis.com%2Fcss%3Ffamily%3DManrope;" edge="1" parent="6ZO-cmNdnnO5XEdHHBGZ-1" source="y5E_3cJ_6syK_cVxJvcB-14" target="6ZO-cmNdnnO5XEdHHBGZ-32">
          <mxGeometry relative="1" as="geometry">
            <mxPoint x="595" y="405" as="sourcePoint" />
            <mxPoint x="337" y="355" as="targetPoint" />
          </mxGeometry>
        </mxCell>
        <mxCell id="y5E_3cJ_6syK_cVxJvcB-44" style="rounded=0;orthogonalLoop=1;jettySize=auto;html=1;exitX=0.5;exitY=0;exitDx=0;exitDy=0;entryX=0.5;entryY=1;entryDx=0;entryDy=0;startSize=6;endArrow=none;endFill=0;endSize=2;fontFamily=Manrope;fontSize=8;strokeColor=#98A2AE;fontSource=https%3A%2F%2Ffonts.googleapis.com%2Fcss%3Ffamily%3DManrope;" edge="1" parent="6ZO-cmNdnnO5XEdHHBGZ-1" source="y5E_3cJ_6syK_cVxJvcB-20" target="6ZO-cmNdnnO5XEdHHBGZ-32">
          <mxGeometry relative="1" as="geometry">
            <mxPoint x="610" y="405" as="sourcePoint" />
            <mxPoint x="448" y="356" as="targetPoint" />
          </mxGeometry>
        </mxCell>
        <mxCell id="y5E_3cJ_6syK_cVxJvcB-19" value="" style="group" vertex="1" connectable="0" parent="6ZO-cmNdnnO5XEdHHBGZ-1">
          <mxGeometry x="475" y="403" width="141" height="107" as="geometry" />
        </mxCell>
        <mxCell id="y5E_3cJ_6syK_cVxJvcB-20" value="" style="whiteSpace=wrap;html=1;aspect=fixed;fillColor=#001135;strokeColor=none;connectable=1;allowArrows=1;fontFamily=Manrope;fontSource=https%3A%2F%2Ffonts.googleapis.com%2Fcss%3Ffamily%3DManrope;" vertex="1" parent="y5E_3cJ_6syK_cVxJvcB-19">
          <mxGeometry width="30" height="30" as="geometry" />
        </mxCell>
        <mxCell id="y5E_3cJ_6syK_cVxJvcB-21" value="" style="endArrow=open;html=1;edgeStyle=orthogonalEdgeStyle;rounded=0;endFill=0;startSize=6;endSize=2;strokeColor=#FFFFFF;fontFamily=Manrope;fontSource=https%3A%2F%2Ffonts.googleapis.com%2Fcss%3Ffamily%3DManrope;" edge="1" parent="y5E_3cJ_6syK_cVxJvcB-19">
          <mxGeometry width="50" height="50" as="geometry">
            <mxPoint x="3" y="12" as="sourcePoint" />
            <mxPoint x="11" y="3" as="targetPoint" />
            <Array as="points">
              <mxPoint x="11" y="12" />
            </Array>
          </mxGeometry>
        </mxCell>
        <mxCell id="y5E_3cJ_6syK_cVxJvcB-22" value="" style="endArrow=open;html=1;edgeStyle=orthogonalEdgeStyle;rounded=0;endFill=0;startSize=6;endSize=2;strokeColor=#FFFFFF;fontFamily=Manrope;fontSource=https%3A%2F%2Ffonts.googleapis.com%2Fcss%3Ffamily%3DManrope;" edge="1" parent="y5E_3cJ_6syK_cVxJvcB-19">
          <mxGeometry width="50" height="50" as="geometry">
            <mxPoint x="11" y="27" as="sourcePoint" />
            <mxPoint x="3" y="19" as="targetPoint" />
            <Array as="points">
              <mxPoint x="11" y="19" />
            </Array>
          </mxGeometry>
        </mxCell>
        <mxCell id="y5E_3cJ_6syK_cVxJvcB-23" value="" style="endArrow=open;html=1;edgeStyle=orthogonalEdgeStyle;rounded=0;endFill=0;startSize=6;endSize=2;strokeColor=#FFFFFF;fontFamily=Manrope;fontSource=https%3A%2F%2Ffonts.googleapis.com%2Fcss%3Ffamily%3DManrope;" edge="1" parent="y5E_3cJ_6syK_cVxJvcB-19">
          <mxGeometry width="50" height="50" as="geometry">
            <mxPoint x="18" y="3" as="sourcePoint" />
            <mxPoint x="27" y="12" as="targetPoint" />
            <Array as="points">
              <mxPoint x="18" y="12" />
            </Array>
          </mxGeometry>
        </mxCell>
        <mxCell id="y5E_3cJ_6syK_cVxJvcB-24" value="" style="endArrow=open;html=1;edgeStyle=orthogonalEdgeStyle;rounded=0;endFill=0;startSize=6;endSize=2;strokeColor=#FFFFFF;fontFamily=Manrope;fontSource=https%3A%2F%2Ffonts.googleapis.com%2Fcss%3Ffamily%3DManrope;" edge="1" parent="y5E_3cJ_6syK_cVxJvcB-19">
          <mxGeometry width="50" height="50" as="geometry">
            <mxPoint x="27" y="19" as="sourcePoint" />
            <mxPoint x="18" y="27" as="targetPoint" />
            <Array as="points">
              <mxPoint x="18" y="19" />
            </Array>
          </mxGeometry>
        </mxCell>
        <mxCell id="y5E_3cJ_6syK_cVxJvcB-25" value="" style="ellipse;whiteSpace=wrap;html=1;fillColor=none;strokeColor=#98a2ae;" vertex="1" parent="y5E_3cJ_6syK_cVxJvcB-19">
          <mxGeometry x="59" y="79" width="32" height="4" as="geometry" />
        </mxCell>
        <mxCell id="y5E_3cJ_6syK_cVxJvcB-26" value="&lt;font style=&quot;font-size: 8px;&quot;&gt;10/25G&lt;/font&gt;" style="text;html=1;align=center;verticalAlign=middle;resizable=0;points=[];autosize=1;fontSize=10;fontFamily=Google Sans;fontStyle=0;fontColor=#FFFFFF;connectable=0;rotation=45;fontSource=https%3A%2F%2Ffonts.googleapis.com%2Fcss%3Ffamily%3DGoogle%2BSans;" vertex="1" parent="y5E_3cJ_6syK_cVxJvcB-19">
          <mxGeometry x="23" y="41.5" width="44" height="24" as="geometry" />
        </mxCell>
        <mxCell id="y5E_3cJ_6syK_cVxJvcB-27" value="&lt;font style=&quot;font-size: 8px;&quot;&gt;10/25G&lt;/font&gt;" style="text;html=1;align=center;verticalAlign=middle;resizable=0;points=[];autosize=1;fontSize=10;fontFamily=Google Sans;fontStyle=0;fontColor=#FFFFFF;connectable=0;rotation=-52;fontSource=https%3A%2F%2Ffonts.googleapis.com%2Fcss%3Ffamily%3DGoogle%2BSans;" vertex="1" parent="y5E_3cJ_6syK_cVxJvcB-19">
          <mxGeometry x="74" y="47" width="44" height="24" as="geometry" />
        </mxCell>
        <mxCell id="y5E_3cJ_6syK_cVxJvcB-13" value="" style="group;fontFamily=Manrope;fontSource=https%3A%2F%2Ffonts.googleapis.com%2Fcss%3Ffamily%3DManrope;" vertex="1" connectable="0" parent="6ZO-cmNdnnO5XEdHHBGZ-1">
          <mxGeometry x="586" y="403" width="30" height="30" as="geometry" />
        </mxCell>
        <mxCell id="y5E_3cJ_6syK_cVxJvcB-14" value="" style="whiteSpace=wrap;html=1;aspect=fixed;fillColor=#001135;strokeColor=none;connectable=1;allowArrows=1;fontFamily=Manrope;fontSource=https%3A%2F%2Ffonts.googleapis.com%2Fcss%3Ffamily%3DManrope;" vertex="1" parent="y5E_3cJ_6syK_cVxJvcB-13">
          <mxGeometry width="30" height="30" as="geometry" />
        </mxCell>
        <mxCell id="y5E_3cJ_6syK_cVxJvcB-15" value="" style="endArrow=open;html=1;edgeStyle=orthogonalEdgeStyle;rounded=0;endFill=0;startSize=6;endSize=2;strokeColor=#FFFFFF;fontFamily=Manrope;fontSource=https%3A%2F%2Ffonts.googleapis.com%2Fcss%3Ffamily%3DManrope;" edge="1" parent="y5E_3cJ_6syK_cVxJvcB-13">
          <mxGeometry width="50" height="50" relative="1" as="geometry">
            <mxPoint x="3" y="12" as="sourcePoint" />
            <mxPoint x="11" y="3" as="targetPoint" />
            <Array as="points">
              <mxPoint x="11" y="12" />
            </Array>
          </mxGeometry>
        </mxCell>
        <mxCell id="y5E_3cJ_6syK_cVxJvcB-16" value="" style="endArrow=open;html=1;edgeStyle=orthogonalEdgeStyle;rounded=0;endFill=0;startSize=6;endSize=2;strokeColor=#FFFFFF;fontFamily=Manrope;fontSource=https%3A%2F%2Ffonts.googleapis.com%2Fcss%3Ffamily%3DManrope;" edge="1" parent="y5E_3cJ_6syK_cVxJvcB-13">
          <mxGeometry width="50" height="50" relative="1" as="geometry">
            <mxPoint x="11" y="27" as="sourcePoint" />
            <mxPoint x="3" y="19" as="targetPoint" />
            <Array as="points">
              <mxPoint x="11" y="19" />
            </Array>
          </mxGeometry>
        </mxCell>
        <mxCell id="y5E_3cJ_6syK_cVxJvcB-17" value="" style="endArrow=open;html=1;edgeStyle=orthogonalEdgeStyle;rounded=0;endFill=0;startSize=6;endSize=2;strokeColor=#FFFFFF;fontFamily=Manrope;fontSource=https%3A%2F%2Ffonts.googleapis.com%2Fcss%3Ffamily%3DManrope;" edge="1" parent="y5E_3cJ_6syK_cVxJvcB-13">
          <mxGeometry width="50" height="50" relative="1" as="geometry">
            <mxPoint x="18" y="3" as="sourcePoint" />
            <mxPoint x="27" y="12" as="targetPoint" />
            <Array as="points">
              <mxPoint x="18" y="12" />
            </Array>
          </mxGeometry>
        </mxCell>
        <mxCell id="y5E_3cJ_6syK_cVxJvcB-18" value="" style="endArrow=open;html=1;edgeStyle=orthogonalEdgeStyle;rounded=0;endFill=0;startSize=6;endSize=2;strokeColor=#FFFFFF;fontFamily=Manrope;fontSource=https%3A%2F%2Ffonts.googleapis.com%2Fcss%3Ffamily%3DManrope;" edge="1" parent="y5E_3cJ_6syK_cVxJvcB-13">
          <mxGeometry width="50" height="50" relative="1" as="geometry">
            <mxPoint x="27" y="19" as="sourcePoint" />
            <mxPoint x="18" y="27" as="targetPoint" />
            <Array as="points">
              <mxPoint x="18" y="19" />
            </Array>
          </mxGeometry>
        </mxCell>
      </root>
    </mxGraphModel>
  </diagram>
</mxfile>
